<?xml version="1.0" encoding="utf-8"?>
<!-- Generator: Adobe Illustrator 22.0.1, SVG Export Plug-In . SVG Version: 6.00 Build 0)  -->
<svg version="1.1" id="Layer_1" xmlns="http://www.w3.org/2000/svg" xmlns:xlink="http://www.w3.org/1999/xlink" x="0px" y="0px"
	 viewBox="0 0 394.6 394.6" style="enable-background:new 0 0 394.6 394.6;" xml:space="preserve">
<style type="text/css">
	.st0{fill:#133054;}
	.st1{fill:#0D223B;}
	.st2{fill:#235A9D;}
	.st3{fill:#1F508C;}
	.st4{fill:#0C1E36;}
	.st5{fill:#FFCA00;}
	.st6{fill:#173B66;}
</style>
<g>
	<g>
		<rect x="94.7" y="326.9" class="st0" width="105.2" height="28.2"/>
		<rect x="199.9" y="326.9" class="st1" width="105.2" height="28.2"/>
	</g>
	<g>
		<path class="st2" d="M152.7,69.5L90,92.6c0,0,4.7,30.8,4.7,60.6c0,30-9.5,54.3-16.9,54.3v119c0,9.1,7.3,16.4,16.4,16.4h105.7V69.5
			H152.7z"/>
	</g>
	<g>
		<path class="st3" d="M247.1,69.5l62.7,23.1c0,0-4.7,30.8-4.7,60.6c0,30,9.5,54.3,16.9,54.3v119c0,9.1-7.3,16.4-16.4,16.4H199.9
			V69.5H247.1z"/>
	</g>
	<rect x="152.7" y="39.9" class="st2" width="94.4" height="29.6"/>
	<rect x="196.2" y="50.7" class="st4" width="7.3" height="292.2"/>
	<rect x="196.2" y="50.7" class="st0" width="3.7" height="292.2"/>
	<rect x="107.9" y="201.7" class="st5" width="70.7" height="11"/>
	<rect x="175.9" y="124.1" class="st5" width="5.5" height="43.4"/>
	<rect x="220.8" y="201.7" class="st5" width="70.7" height="11"/>
	<ellipse class="st2" cx="199.9" cy="39.8" rx="47.2" ry="8.9"/>
	<ellipse class="st0" cx="199.9" cy="39.8" rx="44.5" ry="7.4"/>
	<g>
		<g>
			<rect x="211.4" y="129.3" class="st6" width="25.2" height="47.8"/>
			<rect x="211.4" y="129.3" class="st0" width="25.2" height="12.3"/>
			<path class="st5" d="M226.4,137.1c0-1.3-1.1-2.4-2.4-2.4c-1.3,0-2.4,1.1-2.4,2.4c0,1.3,1.1,2.4,2.4,2.4
				C225.3,139.5,226.4,138.4,226.4,137.1z"/>
		</g>
		<g>
			<rect x="239.2" y="129.3" class="st6" width="25.2" height="47.8"/>
			<rect x="239.2" y="129.3" class="st0" width="25.2" height="12.3"/>
			<path class="st5" d="M254.2,137.1c0-1.3-1.1-2.4-2.4-2.4s-2.4,1.1-2.4,2.4c0,1.3,1.1,2.4,2.4,2.4S254.2,138.4,254.2,137.1z"/>
		</g>
		<g>
			<rect x="266.9" y="129.3" class="st6" width="25.2" height="47.8"/>
			<rect x="266.9" y="129.3" class="st0" width="25.2" height="12.3"/>
			<path class="st5" d="M281.9,137.1c0-1.3-1.1-2.4-2.4-2.4c-1.3,0-2.4,1.1-2.4,2.4c0,1.3,1.1,2.4,2.4,2.4
				C280.9,139.5,281.9,138.4,281.9,137.1z"/>
		</g>
	</g>
	<g>
		<rect x="98" y="241.8" class="st6" width="77.9" height="69.3"/>
		<polygon class="st0" points="176,266.4 137,283.6 98,266.4 98,241.8 176,241.8 		"/>
		<circle class="st5" cx="137" cy="266.4" r="6"/>
	</g>
	<g>
		<rect x="103.9" y="124.1" class="st6" width="67.2" height="43.4"/>
		<polygon class="st0" points="171.1,136 137.5,144.3 103.9,136 103.9,124.1 171.1,124.1 		"/>
		<circle class="st5" cx="137.5" cy="136.2" r="5.1"/>
	</g>
	<g>
		<rect x="223.8" y="241.8" class="st6" width="77.9" height="69.3"/>
		<polygon class="st0" points="301.8,266.4 262.8,283.6 223.8,266.4 223.8,241.8 301.8,241.8 		"/>
		<circle class="st5" cx="262.8" cy="266.4" r="6"/>
	</g>
	<g>
		<polygon class="st5" points="196.3,53.8 194,50.3 196.9,46.8 202.9,46.8 205.8,50.3 203.6,53.8 		"/>
		<g>
			<path class="st5" d="M197.4,54.8c0,3.9,1.1,7.1,2.5,7.1c1.3,0,2.4-3.2,2.5-7.1H197.4z M199.9,60.8c-0.6,0-1.1-0.5-1.1-1.1
				s0.5-1.1,1.1-1.1c0.6,0,1.1,0.5,1.1,1.1S200.5,60.8,199.9,60.8z"/>
			<rect x="198.6" y="52.9" class="st5" width="2.6" height="2.4"/>
		</g>
	</g>
</g>
</svg>
