<?xml version="1.0" encoding="utf-8"?>
<!-- Generator: Adobe Illustrator 22.0.1, SVG Export Plug-In . SVG Version: 6.00 Build 0)  -->
<svg version="1.1" id="Layer_1" xmlns="http://www.w3.org/2000/svg" xmlns:xlink="http://www.w3.org/1999/xlink" x="0px" y="0px"
	 viewBox="0 0 394.6 394.6" style="enable-background:new 0 0 394.6 394.6;" xml:space="preserve">
<style type="text/css">
	.st0{fill:#FFCA00;}
	.st1{opacity:0.5;}
	.st2{fill:#FFC832;}
	.st3{fill:#FF8D23;}
</style>
<g>
	<path class="st0" d="M339.8,224.6c0,7.2-0.5,14.2-1.5,21.1c-0.3,2.4-0.7,4.7-1.2,7c0,0,0,0.1,0,0.1l-3.4,0.2l-81.9,5.2l-12.7-0.7
		l-37.7-2l-42.1,2.4l-7.9,0.5l-84.8-5.3l-4.8-0.3c0-0.1,0-0.1,0-0.2c-0.5-2.3-0.9-4.6-1.2-7c-1-6.9-1.5-13.9-1.5-21.1
		c0-48.1,23.6-90.7,59.6-116.5c22.9-16.4,50.8-26,80.9-26c30.1,0,58.1,9.6,81,26C316.3,134,339.8,176.5,339.8,224.6z"/>
	<g class="st1">
		<g>
			<path class="st0" d="M280.3,108.2c-17.5,49-32.2,98.1-41.3,149.4c-0.2,1.3-0.4,2.5-0.7,3.8c-25.9-3-52.6-2.7-78.5,0
				c-0.2-1.1-0.4-2.3-0.6-3.4c-9.8-51.1-23.9-100.6-40.7-149.8c22.9-16.4,50.8-26,80.9-26C229.4,82.2,257.4,91.8,280.3,108.2z"/>
		</g>
	</g>
	<path class="st2" d="M338.3,245.7c-0.3,2.4-0.7,4.7-1.2,7c-1.1,0.1-2.3,0.2-3.5,0.4c-24.3,2.5-52.1,4.3-81.9,5.2
		c-16.8,0.5-34.3,0.8-52.1,0.8c-16.5,0-32.7-0.2-48.4-0.7c-30.8-0.9-59.6-2.7-84.8-5.3c-1.6-0.2-3.3-0.3-4.9-0.5
		c-0.5-2.3-0.8-4.6-1.2-7c39.2,4.3,87.7,6.6,139.3,6.6C250.3,252.3,299.2,249.9,338.3,245.7z"/>
	<g>
		<path class="st3" d="M344.6,258c-0.1,3.2-2.5,6-5.7,6.7c-92.5,15.3-186.7,15.3-279.2,0c-3.2-0.6-5.6-3.4-5.7-6.7
			c0-4.9,0-9.7,0-14.6c0-3.1,2.5-5.3,5.7-4.7c92.5,15.3,186.7,15.3,279.2,0c3.1-0.5,5.7,1.6,5.7,4.7
			C344.6,248.3,344.6,253.1,344.6,258z"/>
	</g>
	<g>
		<g>
			<path class="st0" d="M64.3,257.3c0,1.4,0,2.1,0,3.4c0.1,16.4,12.8,34,28.4,38.7c68.4,20.9,144.8,20.9,213.2,0
				c15.5-4.8,28.3-22.3,28.4-38.7c0-1.4,0-2.1,0-3.4c-24.9,2.1-49.4,6.7-74.3,8.8c-20.1,1.7-40.5,1.5-60.7,1.5
				c-21.4,0-42.9,0.2-64.2-1.8C111.4,263.6,88,259.3,64.3,257.3z"/>
		</g>
	</g>
	<g>
		<g>
			<path class="st3" d="M271,95.4c3.7,2,5.6,6.5,4.2,10.6c-17.4,47.9-32,95.7-40.6,146c-23.4-2.7-47.5-2.5-70.9,0
				c-9.4-50.4-23.6-99-40.5-147.4c-1.4-4.2,0.6-8.8,4.5-10.7C172.4,71.6,227,71.8,271,95.4z"/>
		</g>
	</g>
</g>
</svg>
