<?xml version="1.0" encoding="utf-8"?>
<!-- Generator: Adobe Illustrator 22.0.1, SVG Export Plug-In . SVG Version: 6.00 Build 0)  -->
<svg version="1.1" id="Layer_1" xmlns="http://www.w3.org/2000/svg" xmlns:xlink="http://www.w3.org/1999/xlink" x="0px" y="0px"
	 viewBox="0 0 394.6 394.6" style="enable-background:new 0 0 394.6 394.6;" xml:space="preserve">
<style type="text/css">
	.st0{fill:#263248;}
	.st1{fill:#060F1C;}
	.st2{fill:#FDB813;}
	.st3{fill:#CCDCFF;}
	.st4{fill:#FFCA00;}
	.st5{fill:#8993AB;}
</style>
<g>
	<g>
		<g>
			<path class="st0" d="M340.7,195.8h-12.9c0-74.4-58.3-134.9-129.9-134.9c-71.6,0-129.9,60.5-129.9,134.9H55.1
				c0-19.9,3.8-39.2,11.2-57.4c7.2-17.6,17.5-33.4,30.5-47c13.1-13.6,28.4-24.3,45.4-31.7c17.6-7.7,36.4-11.6,55.7-11.6
				s38,3.9,55.7,11.6c17,7.5,32.3,18.1,45.4,31.7c13.1,13.6,23.4,29.4,30.5,47C336.9,156.6,340.7,175.9,340.7,195.8z"/>
		</g>
	</g>
	<g>
		<path class="st1" d="M98.4,122.5l-23.9-16.3c15.3-22.5,36.2-40.4,60.3-51.9c13-6.2,26.9-10.4,41.3-12.6
			c14.4-2.2,28.9-2.2,43.2-0.1c27.2,4,52.9,15.7,74.2,33.8c10.5,8.9,19.8,19.2,27.6,30.6l-23.9,16.3c-6.4-9.3-13.9-17.7-22.4-24.9
			c-17.2-14.6-37.8-24-59.7-27.2c-22.9-3.4-47,0.2-67.9,10.2C127.8,89.6,110.9,104.2,98.4,122.5z"/>
	</g>
	<g>
		<g>
			<path class="st0" d="M118.2,182c-0.1,0-0.2,0.1-0.3,0.1l39.2,159.5c0.1,0,0.2,0,0.3-0.1c11-2.7,17.8-13.8,15-24.8l-29.4-119.6
				C140.4,186.1,129.3,179.3,118.2,182z"/>
		</g>
		<path class="st2" d="M117.9,182.1c-43.5,11.2-56.8,52.1-46.1,95.9s41.5,73.9,85.2,63.6L117.9,182.1z"/>
	</g>
	<g>
		
			<rect x="105.6" y="235.3" transform="matrix(0.7464 -0.6655 0.6655 0.7464 -148.2316 140.5715)" class="st3" width="9.5" height="59"/>
		
			<rect x="75.8" y="209.6" transform="matrix(0.7464 -0.6655 0.6655 0.7464 -132.5999 109.619)" class="st0" width="3.4" height="38.3"/>
	</g>
	<path class="st4" d="M75.6,205.7c0-7.8-6.3-14.1-14.1-14.1c-7.8,0-14.1,6.3-14.1,14.1c0,7.8,6.3,14.1,14.1,14.1
		C69.3,219.8,75.6,213.5,75.6,205.7z"/>
	<path class="st0" d="M69.2,205.7c0-4.2-3.4-7.7-7.7-7.7c-4.2,0-7.7,3.4-7.7,7.7c0,4.2,3.4,7.7,7.7,7.7
		C65.8,213.4,69.2,209.9,69.2,205.7z"/>
	<g>
		<g>
			<path class="st0" d="M280.6,182c0.1,0,0.2,0.1,0.3,0.1l-39.2,159.5c-0.1,0-0.2,0-0.3-0.1c-11-2.7-17.8-13.8-15-24.8l29.4-119.6
				C258.4,186.1,269.6,179.3,280.6,182z"/>
		</g>
		<path class="st2" d="M280.9,182.1c43.5,11.2,56.8,52.1,46.1,95.9s-41.5,73.9-85.2,63.6L280.9,182.1z"/>
	</g>
	<path class="st5" d="M138,286.4c0-5-4-9-9-9c-5,0-9,4-9,9c0,5,4,9,9,9C134,295.4,138,291.3,138,286.4z"/>
	<path class="st5" d="M275.6,286.4c0-5-4-9-9-9c-5,0-9,4-9,9c0,5,4,9,9,9C271.6,295.4,275.6,291.3,275.6,286.4z"/>
	<circle class="st0" cx="129" cy="286.4" r="5.4"/>
	<path class="st0" d="M272,286.4c0-3-2.4-5.4-5.4-5.4c-3,0-5.4,2.4-5.4,5.4c0,3,2.4,5.4,5.4,5.4C269.6,291.8,272,289.4,272,286.4z"
		/>
	<g>
		
			<rect x="256.8" y="260" transform="matrix(0.6655 -0.7464 0.7464 0.6655 -101.8604 302.2296)" class="st3" width="59" height="9.5"/>
		
			<rect x="299.9" y="227.1" transform="matrix(0.6655 -0.7464 0.7464 0.6655 -64.0471 314.6907)" class="st0" width="38.3" height="3.4"/>
	</g>
	<path class="st4" d="M321,205.7c0-7.8,6.3-14.1,14.1-14.1c7.8,0,14.1,6.3,14.1,14.1c0,7.8-6.3,14.1-14.1,14.1
		C327.3,219.8,321,213.5,321,205.7z"/>
	<path class="st0" d="M342.8,205.7c0-4.2-3.4-7.7-7.7-7.7c-4.2,0-7.7,3.4-7.7,7.7c0,4.2,3.4,7.7,7.7,7.7
		C339.3,213.4,342.8,209.9,342.8,205.7z"/>
</g>
</svg>
