<?xml version="1.0" encoding="utf-8"?>
<!-- Generator: Adobe Illustrator 22.0.1, SVG Export Plug-In . SVG Version: 6.00 Build 0)  -->
<svg version="1.1" id="Layer_1" xmlns="http://www.w3.org/2000/svg" xmlns:xlink="http://www.w3.org/1999/xlink" x="0px" y="0px"
	 viewBox="0 0 394.6 394.6" style="enable-background:new 0 0 394.6 394.6;" xml:space="preserve">
<style type="text/css">
	.st0{fill:#FDB813;}
	.st1{fill:#07273B;}
	.st2{fill:#DEE8FF;}
	.st3{fill:#CCDCFF;}
	.st4{fill:#1A2230;}
	.st5{fill:#FFFFFF;}
	.st6{fill:#060F1C;}
	.st7{fill:#263248;}
	.st8{fill:#133054;}
	.st9{opacity:0.4;}
	.st10{fill:#173B66;}
</style>
<g>
	<rect x="177.6" y="324.3" class="st0" width="48" height="19.2"/>
	<rect x="174.9" y="320.6" class="st1" width="53.5" height="19.2"/>
	<g>
		<path class="st2" d="M181.7,215.9l-75,89.3c-10.9,13-2,23.6,19.9,23.6h75V206.2C194.4,206.2,187.2,209.4,181.7,215.9z"/>
		<path class="st3" d="M296.5,305.2l-75-89.3c-5.5-6.5-12.7-9.7-19.9-9.7v122.7h75C298.4,328.8,307.4,318.2,296.5,305.2z"/>
	</g>
	<path class="st4" d="M126.6,332.2c-21.8,0-30.8-7-19.9-15.6l75-59.1c10.9-8.6,28.8-8.6,39.7,0l75,59.1c10.9,8.6,2,15.6-19.9,15.6
		H126.6z"/>
	<g>
		<g>
			<path class="st1" d="M237,345.4c-6.6-3.8-2.2-23.7,9.9-44.5c12-20.8,27.1-34.6,33.6-30.8c6.6,3.8,2.2,23.7-9.9,44.5
				C258.7,335.4,243.6,349.2,237,345.4z"/>
			<rect x="233.1" y="297.4" transform="matrix(0.5 -0.866 0.866 0.5 -137.1159 398.5801)" class="st1" width="87" height="41.2"/>
			<path class="st1" d="M272.7,366c-6.6-3.8-2.2-23.7,9.9-44.5c12-20.8,27.1-34.6,33.6-30.8c6.6,3.8,2.2,23.7-9.9,44.5
				C294.3,356,279.3,369.8,272.7,366z"/>
			<path class="st1" d="M243,348.8c-6.6-3.8-2.2-23.7,9.9-44.5c12-20.8,27.1-34.6,33.6-30.8c6.6,3.8,2.2,23.7-9.9,44.5
				C264.6,338.8,249.5,352.6,243,348.8z"/>
			<path class="st0" d="M275.4,361.4c-4.8-2.8-0.1-19.8,10.4-38.1c10.5-18.3,23-30.8,27.7-28c4.8,2.8,0.1,19.8-10.4,38.1
				C292.6,351.6,280.2,364.1,275.4,361.4z"/>
			<path class="st0" d="M252.8,304.3c11.6-20.1,26.1-33.7,33-31.2l-5.3-3c-6.6-3.8-21.6,10-33.6,30.8c-12,20.8-16.4,40.7-9.9,44.5
				l5.3,3C236.7,343.7,241.2,324.4,252.8,304.3z"/>
		</g>
		<g>
			<path class="st1" d="M166.1,345.4c6.6-3.8,2.2-23.7-9.9-44.5c-12-20.8-27.1-34.6-33.6-30.8c-6.6,3.8-2.2,23.7,9.9,44.5
				C144.5,335.4,159.6,349.2,166.1,345.4z"/>
			<rect x="106" y="274.5" transform="matrix(0.866 -0.5 0.5 0.866 -142.063 105.883)" class="st1" width="41.2" height="87"/>
			<ellipse transform="matrix(0.866 -0.5 0.5 0.866 -149.6033 98.3436)" class="st1" cx="108.7" cy="328.3" rx="13.7" ry="43.5"/>
			<path class="st1" d="M160.2,348.8c6.6-3.8,2.2-23.7-9.9-44.5c-12-20.8-27.1-34.6-33.6-30.8c-6.6,3.8-2.2,23.7,9.9,44.5
				C138.6,338.8,153.6,352.6,160.2,348.8z"/>
			<path class="st0" d="M127.8,361.4c4.8-2.8,0.1-19.8-10.4-38.1c-10.5-18.3-23-30.8-27.7-28c-4.8,2.8-0.1,19.8,10.4,38.1
				C110.6,351.6,123,364.1,127.8,361.4z"/>
			<path class="st0" d="M150.4,304.3c-11.6-20.1-26.1-33.7-33-31.2l5.3-3c6.6-3.8,21.6,10,33.6,30.8c12,20.8,16.4,40.7,9.9,44.5
				l-5.3,3C166.5,343.7,162,324.4,150.4,304.3z"/>
		</g>
	</g>
	<g>
		
			<ellipse transform="matrix(0.987 -0.1607 0.1607 0.987 -44.4991 36.1998)" class="st5" cx="201.6" cy="293.3" rx="33.6" ry="33.6"/>
		
			<ellipse transform="matrix(0.3806 -0.9247 0.9247 0.3806 -146.3206 368.0543)" class="st6" cx="201.6" cy="293.3" rx="30.6" ry="30.6"/>
		
			<ellipse transform="matrix(0.987 -0.1606 0.1606 0.987 -44.475 36.1767)" class="st5" cx="201.6" cy="293.3" rx="27.3" ry="27.3"/>
		<path class="st6" d="M204.6,293.3c0-1.6-1.3-3-3-3c-1.6,0-3,1.3-3,3c0,1.6,1.3,3,3,3C203.2,296.2,204.6,294.9,204.6,293.3z"/>
		<path class="st6" d="M204.6,282.7c0-1.6-1.3-3-3-3c-1.6,0-3,1.3-3,3c0,1.6,1.3,3,3,3C203.2,285.7,204.6,284.4,204.6,282.7z"/>
		<path class="st6" d="M204.6,272.2c0-1.6-1.3-3-3-3c-1.6,0-3,1.3-3,3c0,1.6,1.3,3,3,3C203.2,275.2,204.6,273.9,204.6,272.2z"/>
		<path class="st6" d="M204.6,314.3c0-1.6-1.3-3-3-3c-1.6,0-3,1.3-3,3c0,1.6,1.3,3,3,3C203.2,317.2,204.6,315.9,204.6,314.3z"/>
		<path class="st6" d="M188.8,276.3c-1.2-1.2-3-1.2-4.2,0c-1.2,1.2-1.2,3,0,4.2c1.2,1.2,3,1.2,4.2,0
			C190,279.3,190,277.5,188.8,276.3z"/>
		<path class="st6" d="M218.5,306c-1.2-1.2-3-1.2-4.2,0c-1.2,1.2-1.2,3,0,4.2c1.2,1.2,3,1.2,4.2,0C219.7,309,219.7,307.2,218.5,306z
			"/>
		<path class="st6" d="M180.6,290.3c-1.6,0-3,1.3-3,3c0,1.6,1.3,3,3,3c1.6,0,3-1.3,3-3C183.5,291.6,182.2,290.3,180.6,290.3z"/>
		<path class="st6" d="M222.6,290.3c-1.6,0-3,1.3-3,3c0,1.6,1.3,3,3,3c1.6,0,3-1.3,3-3C225.6,291.6,224.2,290.3,222.6,290.3z"/>
		<path class="st6" d="M184.6,306c-1.2,1.2-1.2,3,0,4.2c1.2,1.2,3,1.2,4.2,0c1.2-1.2,1.2-3,0-4.2C187.7,304.9,185.8,304.9,184.6,306
			z"/>
		<path class="st6" d="M214.3,276.3c-1.2,1.2-1.2,3,0,4.2c1.2,1.2,3,1.2,4.2,0c1.2-1.2,1.2-3,0-4.2
			C217.4,275.1,215.5,275.1,214.3,276.3z"/>
		<path class="st6" d="M204.6,303.8c0-1.6-1.3-3-3-3c-1.6,0-3,1.3-3,3c0,1.6,1.3,3,3,3C203.2,306.7,204.6,305.4,204.6,303.8z"/>
		<circle class="st6" cx="194.2" cy="285.8" r="3"/>
		<path class="st6" d="M211.1,298.6c-1.2-1.2-3-1.2-4.2,0c-1.2,1.2-1.2,3,0,4.2c1.2,1.2,3,1.2,4.2,0
			C212.3,301.6,212.3,299.7,211.1,298.6z"/>
		<path class="st6" d="M191.1,290.3c-1.6,0-3,1.3-3,3c0,1.6,1.3,3,3,3s3-1.3,3-3C194,291.6,192.7,290.3,191.1,290.3z"/>
		<path class="st6" d="M212.1,290.3c-1.6,0-3,1.3-3,3c0,1.6,1.3,3,3,3c1.6,0,3-1.3,3-3C215.1,291.6,213.7,290.3,212.1,290.3z"/>
		<circle class="st6" cx="194.2" cy="300.7" r="3"/>
		<path class="st6" d="M206.9,283.7c-1.2,1.2-1.2,3,0,4.2c1.2,1.2,3,1.2,4.2,0c1.2-1.2,1.2-3,0-4.2
			C210,282.6,208.1,282.6,206.9,283.7z"/>
	</g>
</g>
<g>
	<g>
		<path class="st4" d="M298.9,163.2c-57.7-13.9-61.8-105-138.2-118.2c-4.7-0.9-9.6-5-5.7-9.8l0,0c4-5.1,11.9-8.1,18.3-6.8
			c57.7,13.9,130.3,85.9,138.2,118.2C317.5,162.1,305.2,164.5,298.9,163.2z"/>
	</g>
	<g>
		<path class="st7" d="M102.6,163.2c57.7-13.9,61.8-105,138.2-118.2c4.7-0.9,9.6-5,5.7-9.8l0,0c-4-5.1-11.9-8.1-18.3-6.8
			C170.4,42.2,97.8,114.2,90,146.5C84,162.1,96.2,164.5,102.6,163.2z"/>
	</g>
	<g>
		<path class="st8" d="M141.5,119.6c-26.3,0-52.9,11.1-53.5,37.3c-0.6,26.9,27.2,61.4,53.5,61.7c23,0.3,33.8-8.7,40.8-20.6
			c5.1-8.8,8.3-18.5,18.5-18.5v-59.9H141.5z"/>
		<path class="st4" d="M260,119.6h-59.3v59.9c10.2,0,13.3,9.7,18.5,18.5c7,12,17.8,20.9,40.8,20.6c26.3-0.3,54.1-34.8,53.5-61.7
			C313,130.7,286.3,119.6,260,119.6z"/>
	</g>
	<g>
		<path class="st3" d="M291.4,136.8c-7.9-4.8-19-7.4-31.3-7.4h-59.3v40.4h0c14.3,0,20.3,11.1,24.6,19.1c0.8,1.5,1.5,2.8,2.3,4.2
			c4.8,8.2,11.9,15.8,31.3,15.8c0.3,0,0.6,0,0.9,0c8.3-0.1,17.9-5.2,26.5-14.1c8.9-9.3,15.2-21,16.9-31.3c0.4-2.2,0.5-4.3,0.5-6.3
			C303.6,148.4,299.5,141.7,291.4,136.8z"/>
		<path class="st2" d="M141.5,129.4c-12.3,0-23.4,2.6-31.3,7.4c-8.1,4.9-12.2,11.6-12.4,20.4c0,2,0.1,4.1,0.5,6.3
			c1.7,10.4,7.9,22.1,16.9,31.3c8.6,8.9,18.2,14,26.5,14.1c0.3,0,0.6,0,0.9,0c19.4,0,26.5-7.6,31.3-15.8c0.8-1.3,1.5-2.7,2.3-4.2
			c4.3-8.1,10.3-19.1,24.6-19.1v-40.4H141.5z"/>
	</g>
	<g class="st9">
		<path class="st8" d="M303.3,163.4c-1.6,0.1-3.1,0-4.4-0.3c-19.2-4.6-32.5-17.8-44.4-33.8h5.6c12.3,0,23.4,2.6,31.3,7.4
			c8.1,4.9,12.2,11.6,12.4,20.4C303.8,159.2,303.6,161.3,303.3,163.4z"/>
	</g>
	<g class="st9">
		<path class="st10" d="M141.5,129.4h5.5c-12,16-25.2,29.1-44.4,33.8c-1.3,0.3-2.8,0.4-4.3,0.3c-0.4-2.2-0.5-4.3-0.5-6.3
			c0.2-8.8,4.2-15.5,12.4-20.4C118.1,132,129.2,129.4,141.5,129.4z"/>
	</g>
</g>
</svg>
