<?xml version="1.0" encoding="utf-8"?>
<!-- Generator: Adobe Illustrator 22.0.1, SVG Export Plug-In . SVG Version: 6.00 Build 0)  -->
<svg version="1.1" id="Layer_1" xmlns="http://www.w3.org/2000/svg" xmlns:xlink="http://www.w3.org/1999/xlink" x="0px" y="0px"
	 viewBox="0 0 394.6 394.6" style="enable-background:new 0 0 394.6 394.6;" xml:space="preserve">
<style type="text/css">
	.st0{fill:#F4C600;}
	.st1{fill:#ECA400;}
	.st2{fill:#F1941D;}
	.st3{fill:#E57807;}
	.st4{fill:#BC6317;}
</style>
<g id="XMLID_168_">
	<path id="XMLID_177_" class="st0" d="M138.5,230.8c0,0-26.4-7.1-25.8-22.4c0,0-10.9-81.1,36.7-104.5c0,0,52.8-27.4,102.1-12.2"/>
	<path id="XMLID_176_" class="st0" d="M270,254.6c0,0,82,4.7,91.3-7.4c0,0,14.8-56.6-1.1-99.4c-7.1-19.1-23.9-34.5-45.4-42.5
		c-19.2-7.1-49.1-16.7-63.3-13.6L270,254.6z"/>
	<path id="XMLID_175_" class="st1" d="M251.5,91.7c0,0,46.9,13.3,18.4,162.9c0,0-98-10.6-131.4-23.8
		C138.5,230.8,115.9,97.5,251.5,91.7z"/>
	<path id="XMLID_174_" class="st2" d="M263.6,90.2c-0.3,3.4-6.3,5.7-13.6,5.2c-7.3-0.5-12.9-3.7-12.7-7.1c0.3-3.4,6.3-5.7,13.6-5.2
		C258.2,83.6,263.9,86.8,263.6,90.2z"/>
	<path id="XMLID_173_" class="st3" d="M112.5,205.8c0,0-113.3,13.9-79,29.3c0,0,149.5,62.7,268.1,20.4L112.5,205.8z"/>
	<path id="XMLID_172_" class="st4" d="M29.1,227c0,0-19.4,16.5,67.5,42.1c2.4,0.7,4.9,1.3,7.4,1.7c23.9,4,150.4,22.8,197.6-15.4
		C301.6,255.5,143.3,294.8,29.1,227z"/>
</g>
</svg>
