<?xml version="1.0" encoding="utf-8"?>
<!-- Generator: Adobe Illustrator 22.0.1, SVG Export Plug-In . SVG Version: 6.00 Build 0)  -->
<svg version="1.1" id="Layer_1" xmlns="http://www.w3.org/2000/svg" xmlns:xlink="http://www.w3.org/1999/xlink" x="0px" y="0px"
	 viewBox="0 0 394.6 394.6" style="enable-background:new 0 0 394.6 394.6;" xml:space="preserve">
<style type="text/css">
	.st0{fill:#C6C6C5;}
	.st1{fill:#373E48;}
	.st2{fill:#6EBDBF;}
	.st3{fill:#FFFFFF;}
</style>
<g>
	<path class="st0" d="M341.4,291.4c0,6.4-5.2,11.6-11.6,11.6h-263c-6.4,0-11.6-5.2-11.6-11.6V103.3c0-6.4,5.2-11.6,11.6-11.6h262.9
		c6.4,0,11.6,5.2,11.6,11.6L341.4,291.4L341.4,291.4z"/>
	<path class="st1" d="M336.8,285.9c0,6.2-5,11.2-11.2,11.2H71c-6.2,0-11.2-5-11.2-11.2V108.8c0-6.2,5-11.2,11.2-11.2h254.6
		c6.2,0,11.2,5,11.2,11.2L336.8,285.9L336.8,285.9z"/>
	<path class="st2" d="M318.9,266.9c0,4.9-4,8.9-8.9,8.9H86.6c-4.9,0-8.9-4-8.9-8.9V117.6c0-4.9,4-8.9,8.9-8.9H310
		c4.9,0,8.9,4,8.9,8.9V266.9z"/>
	<path class="st3" d="M220,284c0,2-1.6,3.6-3.6,3.6h-36.2c-2,0-3.6-1.6-3.6-3.6l0,0c0-2,1.6-3.6,3.6-3.6h36.2
		C218.4,280.4,220,282.1,220,284L220,284z"/>
</g>
</svg>
