<?xml version="1.0" encoding="utf-8"?>
<!-- Generator: Adobe Illustrator 22.0.1, SVG Export Plug-In . SVG Version: 6.00 Build 0)  -->
<svg version="1.1" id="Layer_1" xmlns="http://www.w3.org/2000/svg" xmlns:xlink="http://www.w3.org/1999/xlink" x="0px" y="0px"
	 viewBox="0 0 394.6 394.6" style="enable-background:new 0 0 394.6 394.6;" xml:space="preserve">
<style type="text/css">
	.st0{fill:#1A2230;}
	.st1{fill:#263248;}
	.st2{fill:#235A9D;}
	.st3{fill:#1F508C;}
	.st4{fill:#CCDCFF;}
	.st5{fill:#173B66;}
	.st6{fill:#133054;}
	.st7{fill:#FFCA00;}
	.st8{fill:#FDB813;}
	.st9{fill:#0D223B;}
	.st10{fill:#0C1E36;}
</style>
<g>
	<polygon class="st0" points="264.4,92.1 240.7,83.2 150.9,173.1 167.1,189.4 	"/>
	<polygon class="st1" points="132,92.1 155.7,83.2 247.7,175.3 231.4,191.5 	"/>
	<polygon class="st2" points="155.7,83.2 130.6,90.4 130.6,162.3 155.7,162.3 	"/>
	<polygon class="st2" points="265.8,90.2 240.7,83.2 240.7,163.4 265.8,163.4 	"/>
	<g>
		<path class="st2" d="M130.6,162.3v86.9c0,14.8-11,27-25.2,29.1v92.1v26v248V710h79.4l0.9-65.7l11.3-248h1.2v-234H130.6z"/>
		<path class="st3" d="M265.8,249.1v-86.9h-65.3h-2.2v234h1.2l11.3,248l0.9,65.7H291v-65.7v-248V278.2
			C276.7,276.2,265.8,263.9,265.8,249.1z"/>
	</g>
	<polygon class="st4" points="105.4,557.7 105.4,583.5 188.5,583.5 189.7,557.7 	"/>
	<polygon class="st4" points="105.4,604.2 105.4,624 186.7,624 187.6,604.2 	"/>
	<polygon class="st4" points="208.9,604.2 209.8,624 291,624 291,604.2 	"/>
	<polygon class="st4" points="206.7,557.7 207.9,583.5 291,583.5 291,557.7 	"/>
	<rect x="158.6" y="193" class="st5" width="75.4" height="55.2"/>
	<polygon class="st6" points="233.9,212.6 196.3,226.2 158.6,212.6 158.6,193 233.9,193 	"/>
	<rect x="240.7" y="441.2" class="st5" width="50.3" height="95.2"/>
	<rect x="240.7" y="441.2" class="st6" width="50.3" height="24.5"/>
	<polygon class="st5" points="105.4,345.8 105.4,283.3 155.7,283.3 	"/>
	<polygon class="st5" points="291,345.8 291,283.3 240.7,283.3 	"/>
	<polygon class="st7" points="147.4,293.6 155.7,283.3 105.4,283.3 105.4,293.6 	"/>
	<polygon class="st7" points="291,293.6 291,283.3 240.7,283.3 249,293.6 	"/>
	<rect x="130.6" y="155.4" class="st7" width="25.1" height="6.9"/>
	<rect x="130.6" y="149.6" class="st8" width="25.1" height="6.9"/>
	<rect x="240.7" y="156.5" class="st7" width="25.1" height="6.9"/>
	<rect x="240.7" y="149.6" class="st8" width="25.1" height="6.9"/>
	<path class="st7" d="M201,212.6c0-2.6-2.1-4.7-4.7-4.7c-2.6,0-4.7,2.1-4.7,4.7c0,2.6,2.1,4.7,4.7,4.7
		C198.9,217.3,201,215.2,201,212.6z"/>
	<circle class="st7" cx="269.1" cy="458.2" r="4.7"/>
	<rect x="223.6" y="174.2" class="st6" width="35" height="10.3"/>
</g>
<g>
	<g>
		<rect x="98.5" y="297.6" class="st6" width="100" height="26.8"/>
		<rect x="198.5" y="297.6" class="st9" width="100" height="26.8"/>
	</g>
	<g>
		<path class="st2" d="M153.7,53L94.1,75c0,0,4.4,29.2,4.4,57.6c0,28.5-9,51.6-16,51.6v113.1c0,8.6,7,15.6,15.6,15.6h100.4V53H153.7
			z"/>
	</g>
	<g>
		<path class="st3" d="M243.3,53L302.9,75c0,0-4.4,29.2-4.4,57.6c0,28.5,9,51.6,16,51.6v113.1c0,8.6-7,15.6-15.6,15.6H198.5V53
			H243.3z"/>
	</g>
	<rect x="153.7" y="25" class="st2" width="89.7" height="28.1"/>
	<rect x="195" y="35.2" class="st10" width="7" height="277.6"/>
	<rect x="195" y="35.2" class="st6" width="3.5" height="277.6"/>
	<rect x="111.1" y="178.7" class="st7" width="67.2" height="10.4"/>
	<rect x="175.7" y="104.9" class="st7" width="5.2" height="41.2"/>
	<rect x="218.4" y="178.7" class="st7" width="67.2" height="10.4"/>
	<ellipse class="st2" cx="198.5" cy="24.9" rx="44.8" ry="8.4"/>
	<ellipse class="st6" cx="198.5" cy="24.9" rx="42.3" ry="7"/>
	<g>
		<g>
			<rect x="209.4" y="109.9" class="st5" width="24" height="45.4"/>
			<rect x="209.4" y="109.9" class="st6" width="24" height="11.7"/>
			<path class="st7" d="M223.7,117.3c0-1.2-1-2.3-2.3-2.3c-1.2,0-2.3,1-2.3,2.3c0,1.2,1,2.3,2.3,2.3
				C222.7,119.6,223.7,118.6,223.7,117.3z"/>
		</g>
		<g>
			<rect x="235.8" y="109.9" class="st5" width="24" height="45.4"/>
			<rect x="235.8" y="109.9" class="st6" width="24" height="11.7"/>
			<path class="st7" d="M250.1,117.3c0-1.2-1-2.3-2.3-2.3s-2.3,1-2.3,2.3c0,1.2,1,2.3,2.3,2.3S250.1,118.6,250.1,117.3z"/>
		</g>
		<g>
			<rect x="262.2" y="109.9" class="st5" width="24" height="45.4"/>
			<rect x="262.2" y="109.9" class="st6" width="24" height="11.7"/>
			<path class="st7" d="M276.5,117.3c0-1.2-1-2.3-2.3-2.3c-1.2,0-2.3,1-2.3,2.3c0,1.2,1,2.3,2.3,2.3
				C275.5,119.6,276.5,118.6,276.5,117.3z"/>
		</g>
	</g>
	<g>
		<rect x="101.7" y="216.8" class="st5" width="74" height="65.9"/>
		<polygon class="st6" points="175.8,240.1 138.8,256.4 101.7,240.1 101.7,216.8 175.8,216.8 		"/>
		<circle class="st7" cx="138.8" cy="240.1" r="5.7"/>
	</g>
	<g>
		<rect x="107.3" y="104.9" class="st5" width="63.8" height="41.2"/>
		<polygon class="st6" points="171.2,116.3 139.2,124.2 107.3,116.3 107.3,104.9 171.2,104.9 		"/>
		<circle class="st7" cx="139.2" cy="116.5" r="4.9"/>
	</g>
	<g>
		<rect x="221.3" y="216.8" class="st5" width="74" height="65.9"/>
		<polygon class="st6" points="295.3,240.1 258.3,256.4 221.3,240.1 221.3,216.8 295.3,216.8 		"/>
		<circle class="st7" cx="258.3" cy="240.1" r="5.7"/>
	</g>
	<g>
		<polygon class="st7" points="195.1,38.1 192.9,34.8 195.7,31.5 201.3,31.5 204.2,34.8 202,38.1 		"/>
		<g>
			<path class="st7" d="M196.2,39.1c0,3.7,1.1,6.8,2.3,6.8c1.3,0,2.3-3,2.3-6.8H196.2z M198.5,44.8c-0.6,0-1-0.5-1-1
				c0-0.6,0.5-1,1-1c0.6,0,1,0.5,1,1C199.5,44.3,199.1,44.8,198.5,44.8z"/>
			<rect x="197.3" y="37.2" class="st7" width="2.5" height="2.2"/>
		</g>
	</g>
</g>
</svg>
