<?xml version="1.0" encoding="utf-8"?>
<!-- Generator: Adobe Illustrator 22.0.1, SVG Export Plug-In . SVG Version: 6.00 Build 0)  -->
<svg version="1.1" id="Layer_1" xmlns="http://www.w3.org/2000/svg" xmlns:xlink="http://www.w3.org/1999/xlink" x="0px" y="0px"
	 viewBox="0 0 394.6 394.6" style="enable-background:new 0 0 394.6 394.6;" xml:space="preserve">
<style type="text/css">
	.st0{fill:#403F41;}
	.st1{fill:#CDCBCA;}
	.st2{fill:#68B2EB;}
	.st3{fill:#FEE391;}
	.st4{fill:#FEFEFE;}
	.st5{opacity:0.55;fill:#B6B6B7;}
</style>
<g>
	<g>
		<path class="st0" d="M294.1,112H183.3l16.1-30.5c1.2-2.3,3.5-3.7,6.1-3.7h66.3c2.6,0,4.9,1.4,6.1,3.7L294.1,112z"/>
		<path class="st1" d="M260,103.1h-42.6c-2.4,0-4-2.6-2.9-4.7l4.3-8c1.2-2.3,3.5-3.7,6.1-3.7h27.6c2.6,0,4.9,1.4,6.1,3.7l4.3,8
			C264,100.5,262.4,103.1,260,103.1z"/>
		<path class="st0" d="M166.5,127.1h-7.6c-3.3,0-5.9-2.4-5.9-5.4V106c0-3,2.6-5.4,5.9-5.4h7.6c3.3,0,5.9,2.4,5.9,5.4v15.7
			C172.4,124.7,169.8,127.1,166.5,127.1z"/>
		<path class="st0" d="M316.7,130.7h-9.4c-3.3,0-5.9-2.4-5.9-5.4v-19.6c0-3,2.6-5.4,5.9-5.4h9.4c3.3,0,5.9,2.4,5.9,5.4v19.6
			C322.6,128.3,319.9,130.7,316.7,130.7z"/>
		<path class="st1" d="M135.7,119.6H70v-19.2c0-6.1,4.9-11,11-11h43.7c6.1,0,11,4.9,11,11V119.6z"/>
		<path class="st2" d="M326.2,295.3H71.9c-10.1,0-18.2-8.2-18.2-18.2V130.2c0-10.1,8.2-18.2,18.2-18.2h254.4
			c10.1,0,18.2,8.2,18.2,18.2V277C344.5,287.1,336.3,295.3,326.2,295.3z"/>
		<path class="st0" d="M140,295.3H59.4c-3.2,0-5.8-8.2-5.8-18.2V130.2c0-10.1,2.6-18.2,5.8-18.2H140c3.2,0,5.8,8.2,5.8,18.2V277
			C145.8,287.1,143.2,295.3,140,295.3z"/>
		
			<ellipse transform="matrix(0.7071 -0.7071 0.7071 0.7071 -70.2812 231.7924)" class="st0" cx="244.7" cy="200.7" rx="79.2" ry="79.2"/>
		<g>
			<path class="st3" d="M244.7,265.5c-35.7,0-64.8-29.1-64.8-64.8c0-35.7,29.1-64.8,64.8-64.8c35.7,0,64.8,29.1,64.8,64.8
				C309.4,236.5,280.4,265.5,244.7,265.5z M244.7,141.7c-32.5,0-59,26.5-59,59c0,32.5,26.5,59,59,59s59-26.5,59-59
				C303.7,168.2,277.2,141.7,244.7,141.7z"/>
		</g>
		<path class="st4" d="M228.2,174.8c0,6.7-5.4,12.1-12.1,12.1c-6.7,0-12.1-5.4-12.1-12.1c0-6.7,5.4-12.1,12.1-12.1
			C222.8,162.7,228.2,168.1,228.2,174.8z"/>
		<path class="st4" d="M281.3,220c0,10.9-8.9,19.8-19.8,19.8c-10.9,0-19.8-8.9-19.8-19.8c0-10.9,8.9-19.8,19.8-19.8
			C272.4,200.2,281.3,209.1,281.3,220z"/>
	</g>
	<path class="st5" d="M326.2,112h-3.7v-6.2c0-3-2.6-5.4-5.9-5.4h-9.4c-3.3,0-5.9,2.4-5.9,5.4v6.2h-7.3l-16.1-30.5
		c-1.2-2.3-3.5-3.7-6.1-3.7h-66.3c-0.3,0-0.7,0.1-1,0.1v217.4h121.7c10.1,0,18.2-8.2,18.2-18.2V130.2
		C344.5,120.1,336.3,112,326.2,112z"/>
</g>
</svg>
