<?xml version="1.0" encoding="utf-8"?>
<!-- Generator: Adobe Illustrator 22.0.1, SVG Export Plug-In . SVG Version: 6.00 Build 0)  -->
<svg version="1.1" id="Layer_1" xmlns="http://www.w3.org/2000/svg" xmlns:xlink="http://www.w3.org/1999/xlink" x="0px" y="0px"
	 viewBox="0 0 394.6 394.6" style="enable-background:new 0 0 394.6 394.6;" xml:space="preserve">
<style type="text/css">
	.st0{fill:#1A2230;}
	.st1{fill:#D46B0B;}
	.st2{fill:#EBA600;}
	.st3{fill:#FF8D23;}
	.st4{fill:#FFA200;}
	.st5{fill:#FDB813;}
	.st6{fill:#FFCA00;}
	.st7{fill:#263248;}
	.st8{fill:#FFCD00;}
</style>
<g>
	<g>
		<path class="st0" d="M70.5,271.1c1.3,13.5,18.5,27,41.1,29.2c46.2,4.5,46.2-8.4,73.6-9.6c4.8-0.2,9.3-0.6,13.3-0.6l-0.8-14.5
			c0-1.4,6.4,0,7.7,0h28.2c1.4,0,2.5,1.1,2.5,2.5v1h0.2c5,0,10.5-5.4,12.7-2.9c0.1-1.8,0.1-3.2,0.1-3.3c1.1,0.1,0.5,10.6,0.1,13.2
			c0,0,0,0,0,0c-0.3,3.3-0.9,7.2-2.3,12.9c-1.3,5.5-4.9,10.4-10.1,11.7c-0.1-0.7-0.8-1.3-1.6-1.3l-0.1,0c-0.9,0-1.6,0.7-1.5,1.6l0,0
			h-6.3c-0.3-0.7-1-1.3-1.9-1.3h-2.4c-0.8,0-1.6,0.5-1.9,1.3h-6.2h-1.4c-0.3-0.7-1-1.3-1.9-1.3h-2.4c-0.8,0-1.6,0.5-1.9,1.3h-5.5
			c-1.4,0-2.5-1.1-2.5-2.5l-0.7-12.8c-3.9-0.9-8.3-1.5-13.6-1.2c-18,0.8-17.9,5.6-31.7,13.4c-2.7,1.5-7.1,2.5-12.2,3
			c-0.3-0.7-1-1.2-1.8-1.2h-2.4c-0.9,0-1.7,0.7-2,1.5c-3.6,0.1-7.5,0.1-11.4-0.1c-0.3-0.8-1-1.4-1.9-1.4h-2.4
			c-0.8,0-1.4,0.4-1.8,1.1c-2-0.1-4-0.3-5.9-0.5c-1.1-0.1-2.2-0.2-3.3-0.4c-0.2-0.7-0.7-1.3-1.5-1.5l-2.3-0.6
			c-0.8-0.2-1.7,0.2-2.2,0.8c-3.7-0.9-7.2-2.2-10.4-3.7c0.3-0.9-0.2-1.9-1.1-2.4l-2.2-1c-0.8-0.4-1.7-0.2-2.3,0.4
			c-10-6.2-16.2-15-16.2-23.4C70.1,277.9,70.1,271.1,70.5,271.1z"/>
		<path class="st1" d="M70.7,269c1.3,13.5,18.5,26.5,41.1,28.7c46.2,4.5,46.2-8.8,73.6-10.1c23.5-1.1,29.9,7.4,49.6,3.8
			c8.7-1.6,13.7-11.2,14-18.3c0-0.2,0-0.4,0-0.5c1.2,0.1,0.7,3.3,0.4,5c-1.5,6.9-6.4,15.9-15.1,17.5c-19.8,3.7-25.3-4.8-48.9-3.7
			c-27.4,1.3-27.4,14.6-73.6,10.1C88,299.2,70.6,284,70.4,269.8C70.4,269.2,70.4,269,70.7,269z"/>
		<g>
			<path class="st2" d="M70.4,266.8c0.6-21.9,13.3-27.6,27.4-26.2c29.6,3.1,40.7-0.9,50.1-13.3c10.6-13.9,1.2-117.4-4.1-168.5h112.3
				c-2.6,24.1-6.1,58.2-7.6,79.8c-1.2,18.2-2.2,35.5-3,50.2c-1.1,20.2-3.2,41.8-3.2,42.8c-1.2,13.4,7.4,18.8,6.8,41.5
				c-0.2,7-5.3,16.7-14,18.3c-19.8,3.7-26.1-4.9-49.6-3.8c-27.4,1.3-27.4,14.6-73.6,10.1C88,295.4,70,281,70.4,266.8z"/>
		</g>
		<g>
			<path class="st3" d="M111.8,297.8c46.2,4.5,46.2-8.8,73.6-10.1c23.5-1.1,29.9,7.4,49.6,3.8c8.7-1.6,13.7-11.2,14-18.3
				c0.7-22.8-8-28.1-6.8-41.5c0-0.4,0.3-3.2,0.7-7.6c0.7-8.3,1.8-22,2.6-35.2c0.8-14.6,1.8-32,3-50.2c1-14,2.8-33.1,4.6-51.4
				c1-10.1,2.1-19.9,3-28.5H143.8c5.4,51.1,14.7,154.6,4.1,168.5c-9.4,12.4-20.5,16.3-50.1,13.3c-14.2-1.5-26.8,4.2-27.4,26.2
				C70,281,88,295.4,111.8,297.8z"/>
		</g>
		<g>
			<path class="st0" d="M149.7,123.9c-1.8-24.1-4.1-47.7-5.9-65.2h112.3c-2.1,19.2-4.7,44.6-6.5,65.2H149.7z"/>
		</g>
		<path class="st3" d="M143.8,58.7v-5.6c0-2.1,1.7-3.7,3.7-3.7h104.8c2.1,0,3.7,1.7,3.7,3.7v5.6H143.8z"/>
		<path class="st0" d="M207.2,106.6v98.1c0,10.7,8.7,19.4,19.4,19.4h16.3c0.7-8.3,1.8-22,2.6-35.2c0.8-14.6,1.8-32,3-50.2
			c1-14,2.8-33.1,4.6-51.4h-26.5C215.9,87.2,207.2,95.9,207.2,106.6z"/>
		<path class="st2" d="M215.6,191.2c0,6.3,5.1,11.4,11.4,11.4l0,0c6.3,0,11.4-5.1,11.4-11.4v-9.6c0-6.3-5.1-11.4-11.4-11.4l0,0
			c-6.3,0-11.4,5.1-11.4,11.4V191.2z"/>
		<rect x="154.3" y="106.6" class="st3" width="53" height="8"/>
		<rect x="154.3" y="90.8" class="st3" width="53" height="8"/>
	</g>
	<g>
		<path class="st0" d="M131.2,287.7c1.3,13.5,18.5,27,41.1,29.2c46.2,4.5,46.2-8.4,73.6-9.6c4.8-0.2,9.3-0.6,13.3-0.6l-0.8-14.5
			c0-1.4,6.4,0,7.7,0h28.2c1.4,0,2.5,1.1,2.5,2.5v1h0.2c5,0,10.5-5.4,12.7-2.9c0.1-1.8,0.1-3.2,0.1-3.3c1.1,0.1,0.5,10.6,0.1,13.2
			c0,0,0,0,0,0c-0.3,3.3-0.9,7.2-2.3,12.9c-1.3,5.5-4.9,10.4-10.1,11.7c-0.1-0.7-0.8-1.3-1.6-1.3l-0.1,0c-0.9,0-1.6,0.8-1.5,1.6l0,0
			h-6.3c-0.3-0.7-1-1.3-1.9-1.3h-2.4c-0.8,0-1.6,0.5-1.9,1.3h-6.2h-1.4c-0.3-0.7-1-1.3-1.9-1.3H270c-0.8,0-1.6,0.5-1.9,1.3h-5.5
			c-1.4,0-2.5-1.1-2.5-2.5l-0.7-12.8c-3.9-0.9-8.3-1.5-13.6-1.2c-18,0.8-17.9,5.6-31.7,13.4c-2.7,1.5-7.1,2.5-12.2,3
			c-0.3-0.7-1-1.2-1.8-1.2h-2.4c-0.9,0-1.7,0.7-2,1.5c-3.6,0.1-7.5,0.1-11.4-0.1c-0.3-0.8-1-1.4-1.9-1.4H180c-0.8,0-1.4,0.4-1.8,1.1
			c-2-0.1-4-0.3-5.9-0.5c-1.1-0.1-2.2-0.2-3.3-0.4c-0.2-0.7-0.7-1.3-1.5-1.5l-2.3-0.6c-0.8-0.2-1.7,0.2-2.2,0.8
			c-3.7-0.9-7.2-2.2-10.4-3.7c0.3-0.9-0.2-1.9-1.1-2.4l-2.2-1c-0.8-0.4-1.7-0.2-2.3,0.4c-10-6.2-16.2-15-16.2-23.4
			C130.9,294.4,130.9,287.7,131.2,287.7z"/>
		<path class="st4" d="M131.5,285.6c1.3,13.5,18.5,26.5,41.1,28.7c46.2,4.5,46.2-8.8,73.6-10.1c23.5-1.1,29.9,7.4,49.6,3.8
			c8.7-1.6,13.7-11.2,14-18.3c0-0.2,0-0.4,0-0.5c1.2,0.1,0.7,3.3,0.4,5c-1.5,6.9-6.4,15.9-15.1,17.5c-19.8,3.7-25.3-4.8-48.9-3.7
			c-27.4,1.3-27.4,14.6-73.6,10.1c-23.8-2.3-41.2-17.5-41.4-31.7C131.1,285.7,131.1,285.6,131.5,285.6z"/>
		<g>
			<path class="st5" d="M131.2,283.3c0.6-21.9,13.3-27.6,27.4-26.2c29.6,3.1,40.7-0.9,50.1-13.3c10.6-13.9,1.2-117.4-4.1-168.5
				h112.3c-2.6,24.1-6.1,58.2-7.6,79.8c-1.2,18.2-2.2,35.5-3,50.2c-1.1,20.2-3.2,41.8-3.2,42.8c-1.2,13.4,7.4,18.8,6.8,41.5
				c-0.2,7-5.3,16.7-14,18.3c-19.8,3.7-26.1-4.9-49.6-3.8c-27.4,1.3-27.4,14.6-73.6,10.1C148.8,312,130.7,297.5,131.2,283.3z"/>
		</g>
		<g>
			<path class="st6" d="M172.5,314.3c46.2,4.5,46.2-8.8,73.6-10.1c23.5-1.1,29.9,7.4,49.6,3.8c8.7-1.6,13.7-11.2,13.9-18.3
				c0.8-26.9-8-28.1-6.8-41.5c0-0.4,0.3-3.2,0.7-7.6c0.7-8.3,1.8-22,2.6-35.2c0.8-14.6,1.8-32,3-50.2c1-14,2.8-33.1,4.6-51.4
				c1-10.1,2.1-19.9,3-28.5H204.5c5.4,51.1,14.7,154.6,4.1,168.5c-9.4,12.4-20.5,16.3-50.1,13.3c-14.2-1.5-26.8,4.2-27.4,26.2
				C130.7,297.5,148.8,312,172.5,314.3z"/>
		</g>
		<g>
			<path class="st7" d="M210.5,140.5c-1.8-24.1-4.1-47.7-5.9-65.2h112.3c-2.1,19.2-4.7,44.6-6.5,65.2H210.5z"/>
		</g>
		<path class="st8" d="M204.5,75.3v-5.6c0-2.1,1.7-3.7,3.7-3.7h104.8c2.1,0,3.7,1.7,3.7,3.7v5.6H204.5z"/>
		<path class="st7" d="M268,123.1v98.1c0,10.7,8.7,19.4,19.4,19.4h16.3c0.7-8.3,1.8-22,2.6-35.2c0.8-14.6,1.8-32,3-50.2
			c1-14,2.8-33.1,4.6-51.4h-26.5C276.6,103.8,268,112.4,268,123.1z"/>
		<path class="st8" d="M276.3,207.7c0,6.3,5.1,11.4,11.4,11.4l0,0c6.3,0,11.4-5.1,11.4-11.4v-9.6c0-6.3-5.1-11.4-11.4-11.4l0,0
			c-6.3,0-11.4,5.1-11.4,11.4V207.7z"/>
		<rect x="215" y="123.1" class="st8" width="53" height="8"/>
		<rect x="215" y="107.3" class="st8" width="53" height="8"/>
	</g>
</g>
</svg>
