<?xml version="1.0" encoding="utf-8"?>
<!-- Generator: Adobe Illustrator 22.0.1, SVG Export Plug-In . SVG Version: 6.00 Build 0)  -->
<svg version="1.1" id="Layer_1" xmlns="http://www.w3.org/2000/svg" xmlns:xlink="http://www.w3.org/1999/xlink" x="0px" y="0px"
	 viewBox="0 0 394.6 394.6" style="enable-background:new 0 0 394.6 394.6;" xml:space="preserve">
<style type="text/css">
	.st0{fill:#C6C6C5;}
	.st1{fill:#FFFFFF;}
	.st2{fill:#A8D9E5;}
	.st3{fill:#9C9B9B;}
</style>
<g>
	<path class="st0" d="M300.5,352c0,8.7-7.1,15.8-15.8,15.8H118c-8.7,0-15.8-7.1-15.8-15.8V42.6c0-8.7,7.1-15.8,15.8-15.8h166.7
		c8.7,0,15.8,7.1,15.8,15.8V352z"/>
	<path class="st1" d="M295.7,347.2c0,8.5-6.9,15.5-15.5,15.5H122.5c-8.6,0-15.5-6.9-15.5-15.5V47.3c0-8.6,6.9-15.5,15.5-15.5h157.7
		c8.5,0,15.5,6.9,15.5,15.5V347.2z"/>
	<path class="st2" d="M285.2,316.1c0,7.6-6.2,13.8-13.8,13.8H131.3c-7.6,0-13.8-6.2-13.8-13.8V73.7c0-7.6,6.2-13.8,13.8-13.8h140.2
		c7.6,0,13.8,6.2,13.8,13.8V316.1z"/>
	<g>
		<path class="st3" d="M214.7,47.3c0-1.1-0.9-1.9-1.9-1.9h-32.9c-1.1,0-1.9,0.9-1.9,1.9c0,1.1,0.9,1.9,1.9,1.9h32.9
			C213.8,49.3,214.7,48.4,214.7,47.3z"/>
		<path class="st3" d="M221.9,44.4c-1.6,0-2.9,1.3-2.9,2.9s1.3,2.9,2.9,2.9c1.6,0,2.9-1.3,2.9-2.9S223.5,44.4,221.9,44.4z"/>
		<path class="st3" d="M219,337.9h-35.2c-1.4,0-2.5,1.1-2.5,2.5v3.3v2.6c0,1.4,1.1,2.5,2.5,2.5H219c1.4,0,2.5-1.1,2.5-2.5v-2.6v-3.3
			C221.5,339,220.4,337.9,219,337.9z"/>
	</g>
</g>
</svg>
