<?xml version="1.0" encoding="utf-8"?>
<!-- Generator: Adobe Illustrator 22.0.1, SVG Export Plug-In . SVG Version: 6.00 Build 0)  -->
<svg version="1.1" id="Layer_1" xmlns="http://www.w3.org/2000/svg" xmlns:xlink="http://www.w3.org/1999/xlink" x="0px" y="0px"
	 viewBox="0 0 394.6 394.6" style="enable-background:new 0 0 394.6 394.6;" xml:space="preserve">
<style type="text/css">
	.st0{fill:#FF8D23;}
	.st1{fill:#FFCA00;}
	.st2{fill:#FDB813;}
</style>
<g>
	<path class="st0" d="M93.5,140.5L93.5,140.5l45.2,78.3l-1.1,116.7h96.1l-4.5-96.8v-2c0,0,3.3-50,4-61.2c0.3-4.8,0.3-28.8-0.2-36.1
		h0l-0.9-59.5l0,0c0,0,0,0,0,0c0-4.4-3.8-8-8.6-8c-4.7,0-8.6,3.6-8.6,8c0,0,0,0,0,0h0l-1.7,59.5h-1.4l-1.7-81.8h0c0,0,0,0,0,0
		c0-4.4-4.4-8-9.9-8c-5.5,0-9.9,3.6-9.9,8c0,0,0,0,0,0l0,0l-1.3,81.8h-1.3l-1.3-95.6c0-4.4-4.5-8-9.9-8c-5.5,0-9.9,3.6-9.9,8
		l-1.1,95.6h-0.8l-2-87l0,0c0-4.4-4.5-8-9.9-8c-5.5,0-9.9,3.6-9.9,8h0v0v0v0c0,0-0.1,105.8,0.2,112.7c0,0-28-41.7-28.1-41.8
		c-3.8-4.6-12.8-5.2-18.6-0.3C90.5,127.6,89.9,135.9,93.5,140.5z"/>
	<g>
		<path class="st1" d="M151,161.8L151,161.8l45.2,78.3l-1.1,116.7h96.1l-4.5-96.8v-2c0,0,3.3-50,4-61.2c0.3-4.8,0.3-28.8-0.2-36.1h0
			l-0.9-59.5h0c0,0,0,0,0,0c0-4.4-3.8-8-8.6-8c-4.7,0-8.6,3.6-8.6,8c0,0,0,0,0,0l0,0l-1.7,59.5h-1.4l-1.7-81.8h-0.1c0,0,0,0,0,0
			c0-4.4-4.4-8-9.9-8c-5.5,0-9.9,3.6-9.9,8c0,0,0,0,0,0l0,0l-1.3,81.8h-1.3l-1.3-95.6c0-4.4-4.5-8-9.9-8s-9.9,3.6-9.9,8l-1.1,95.6
			h-0.8l-2-87l0,0c0-4.4-4.5-8-9.9-8c-5.5,0-9.9,3.6-9.9,8l0,0v0v0v0c0,0-0.1,105.8,0.2,112.7c0,0-28-41.7-28.1-41.8
			c-3.8-4.6-12.8-5.2-18.6-0.3C148,148.9,147.5,157.2,151,161.8z"/>
		<polygon class="st2" points="288.8,305.9 288.5,298.8 195.6,298.8 195.6,305.9 		"/>
		<polygon class="st2" points="195.1,350.7 195.1,356.1 291.2,356 290.9,350.6 		"/>
		<g>
			<rect x="220.6" y="300.7" class="st2" width="9.5" height="56.1"/>
			<rect x="203.1" y="300.7" class="st2" width="9.5" height="56.1"/>
			<rect x="238.1" y="300.7" class="st2" width="9.5" height="56.1"/>
			<rect x="273.2" y="300.7" class="st2" width="9.5" height="56.1"/>
			<rect x="255.7" y="300.7" class="st2" width="9.5" height="56.1"/>
			<polygon class="st2" points="290.7,346.9 290.7,356.8 291.2,356.8 			"/>
		</g>
	</g>
</g>
</svg>
