<?xml version="1.0" encoding="utf-8"?>
<!-- Generator: Adobe Illustrator 22.0.1, SVG Export Plug-In . SVG Version: 6.00 Build 0)  -->
<svg version="1.1" id="Layer_1" xmlns="http://www.w3.org/2000/svg" xmlns:xlink="http://www.w3.org/1999/xlink" x="0px" y="0px"
	 viewBox="0 0 394.6 394.6" style="enable-background:new 0 0 394.6 394.6;" xml:space="preserve">
<style type="text/css">
	.st0{fill:#01152B;}
	.st1{fill:#003891;}
	.st2{fill:#E6E7E8;}
	.st3{fill:#D2D3D5;}
	.st4{fill:#022A63;}
</style>
<g>
	<g>
		<g>
			<path class="st0" d="M153.8,63.3l0.4-3.1c0,0,16-7.1,45-7.1c29,0,43.1,7.1,43.1,7.1s4.5,38-44.2,37.9
				C153.2,98.1,153.8,63.3,153.8,63.3z"/>
			<path class="st0" d="M198.2,98.7h-0.1c-15.4,0-27.2-4.1-35-12.1c-9.9-10.1-9.8-23.2-9.8-23.3l0.4-3.1c0-0.2,0.1-0.3,0.3-0.4
				c0.2-0.1,16.4-7.1,45.2-7.1c28.8,0,43.2,7.1,43.3,7.1c0.2,0.1,0.3,0.2,0.3,0.4c0,0.1,1.6,14.5-8.2,25.6
				C226.9,94.3,214.7,98.7,198.2,98.7z M154.6,60.6l-0.4,2.8c0,0.1-0.1,12.7,9.6,22.5c7.6,7.8,19.2,11.7,34.3,11.7h0.1
				c16.2,0,28.2-4.2,35.6-12.6c8.8-9.9,8.2-22.5,8-24.5c-2-0.9-16.1-6.9-42.6-6.9C172.6,53.7,156.8,59.7,154.6,60.6z"/>
		</g>
		<g>
			<path class="st1" d="M305.6,82.9c-11.1-8.1-42.3-15.2-56.8-19.2c-3.6-1-6.3-3.4-6.3-3.4c-1.6,10.9-6.8,19.9-15.9,26.7
				c-7.5,5.7-39.1,13.8-56.5,0c-8.9-7-14.2-15.8-15.9-26.7c0,0-2.8,2.5-6.3,3.4c-14.5,4-45.8,11.1-56.8,19.2
				c-19.1,14-34.4,56.4-45.6,80c7.1,7.3,26.8,24.7,53.4,27.3l10.4-30.7c0,0,0.2,151.5,0.1,176h0.1c0,3.3,39.8,6,88.9,6
				s88.9-2.7,88.9-6c0,0,0,0,0-0.1c-0.1-24.6,0.1-175.9,0.1-175.9l10.4,30.7c26.6-2.6,46.2-20.1,53.4-27.3
				C339.9,139.3,324.7,96.9,305.6,82.9z"/>
			<path class="st2" d="M198.3,341.9c-23.8,0-46.1-0.6-62.9-1.8c-24.2-1.6-26.3-3.6-26.5-4.5c-0.1-0.1-0.1-0.2-0.1-0.2
				c0.1-22.2-0.1-151.4-0.1-172.9l-9.4,27.8c-0.1,0.2-0.3,0.4-0.5,0.3c-26.7-2.6-46.4-20.1-53.7-27.5c-0.1-0.1-0.2-0.4-0.1-0.6
				c2.3-4.8,4.8-10.4,7.4-16.4c10.3-23.4,23-52.5,38.4-63.7c9.4-6.9,33.3-13.1,49.1-17.2c3-0.8,5.6-1.5,7.9-2.1
				c3.4-0.9,5.9-3.1,6.1-3.3c0.1-0.1,0.2-0.2,0.4-0.2c0.3,0,0.5,0.2,0.5,0.4c1.6,10.7,6.7,19.3,15.7,26.4c6.2,4.9,15,7.5,25.4,7.5
				c14,0,26.5-4.5,30.5-7.5c8.8-6.6,14-15.5,15.7-26.4c0-0.3,0.3-0.4,0.5-0.4c0.1,0,0.3,0.1,0.4,0.2c0.2,0.1,2.7,2.4,6.1,3.3
				c2.3,0.6,5,1.3,7.9,2.1c15.8,4.1,39.7,10.3,49.1,17.2c15.3,11.2,28.1,40.3,38.4,63.7c2.6,6,5.1,11.6,7.4,16.4
				c0.1,0.2,0.1,0.4-0.1,0.6c-7.2,7.4-27,24.8-53.7,27.5c-0.2,0-0.4-0.1-0.5-0.3l-9.4-27.8c0,21.5-0.2,150.3-0.1,172.8
				c0,0,0,0.1,0,0.1c0,0.8,0,3-26.5,4.8C244.5,341.3,222.1,341.9,198.3,341.9z M109.8,335.2c0,0.1,0.1,0.1,0.1,0.2
				c0.9,2.3,32.1,5.5,88.4,5.5c56.2,0,87.4-3.2,88.4-5.5v0c-0.1-24.4,0.1-174.4,0.1-176c0-0.2,0.2-0.5,0.4-0.5
				c0.2,0,0.5,0.1,0.6,0.3l10.3,30.3c25.9-2.7,45.1-19.5,52.4-26.9c-2.2-4.8-4.7-10.3-7.2-16.1c-10.2-23.3-22.9-52.3-38-63.3
				c-9.2-6.8-33-12.9-48.7-17c-3-0.8-5.6-1.5-7.9-2.1c-2.3-0.6-4.6-2-5.8-3c-1.8,10.8-7.2,19.6-15.9,26.1
				c-4.9,3.7-18.2,7.7-31.1,7.7c-10.7,0-19.6-2.7-26-7.7c-8.9-7-14.1-15.6-15.9-26.1c-1.2,1-3.6,2.3-5.8,3c-2.3,0.6-5,1.3-7.9,2.1
				c-15.7,4.1-39.5,10.3-48.7,17c-15.1,11.1-27.8,40-38,63.3c-2.6,5.8-5,11.4-7.2,16.1c7.3,7.4,26.5,24.2,52.4,26.9l10.3-30.3
				c0.1-0.2,0.3-0.4,0.6-0.3c0.2,0,0.4,0.2,0.4,0.5C109.7,161,109.9,310.4,109.8,335.2z"/>
		</g>
		<g>
			<path class="st3" d="M109.2,160c-0.3,0-0.5-0.2-0.5-0.5c0-29.5,2.6-57.7,2.6-58c0-0.3,0.3-0.5,0.5-0.5c0.3,0,0.5,0.3,0.5,0.5
				c0,0.3-2.6,28.4-2.6,57.9C109.7,159.7,109.5,160,109.2,160z"/>
			<g>
				<path class="st3" d="M287.4,160c-0.3,0-0.5-0.2-0.5-0.5c0-29.4-2.6-57.6-2.6-57.9c0-0.3,0.2-0.5,0.5-0.5c0.3,0,0.5,0.2,0.5,0.5
					c0,0.3,2.6,28.5,2.6,58C287.9,159.7,287.6,160,287.4,160z"/>
			</g>
		</g>
		<path class="st4" d="M305.6,82.9c-11.1-8.1-42.3-15.2-56.8-19.2c-3.6-1-6.3-3.4-6.3-3.4c-1.6,10.9-6.8,19.9-15.9,26.7
			c-7.5,5.7-39.1,13.8-56.5,0c-8.9-7-14.2-15.8-15.9-26.7c0,0-2.8,2.5-6.3,3.4c-14.5,4-45.8,11.1-56.8,19.2
			c-19.1,14-34.4,56.4-45.6,80c7.1,7.3,26.8,24.7,53.4,27.3l10.4-30.7c0,0,0.2,151.5,0.1,176h0.1c0,3.3,39.8,6,88.9,6
			s88.9-2.7,88.9-6c0,0,0,0,0-0.1c-0.1-24.6,0.1-175.9,0.1-175.9l10.4,30.7c26.6-2.6,46.2-20.1,53.4-27.3
			C339.9,139.3,324.7,96.9,305.6,82.9z M313.3,178.6l-29.9-83.7c0,0-1.8,116.3-3.1,139.3c-1.3,23-9.7,90-48,95.7
			c0,0-10,2.9-35.5,2.5c-18.1,0.8-33.4-2.5-33.4-2.5c-38.3-5.7-46.7-72.7-48-95.7c-1.3-23-3.1-139.3-3.1-139.3l-29.9,83.7
			c-13-3.3-31.3-21.7-31.3-21.7s26.3-59.1,38-68.7c11.7-9.6,52-19.7,52-19.7s3.1,31.3,56.8,32.4c53.6-1.2,56.7-32.4,56.7-32.4
			s40.3,10.1,52,19.7c11.7,9.6,38,68.7,38,68.7S326.3,175.2,313.3,178.6z"/>
		<g>
			<g>
				<path class="st4" d="M193.6,98.1c0,0,49,3.1,56.6-34c-0.5-0.1-1-0.3-1.5-0.4c-3.6-1-6.3-3.4-6.3-3.4
					c-1.6,10.9-6.8,19.9-15.9,26.7c-7.5,5.7-39.1,13.8-56.5,0c-8.9-7-14.2-15.8-15.9-26.7c0,0-2.8,2.5-6.3,3.4
					c-0.4,0.1-0.8,0.2-1.2,0.3C150.8,77,162.2,97.1,193.6,98.1z"/>
				<path class="st4" d="M196.4,98.7C196.4,98.7,196.4,98.7,196.4,98.7c-1.8,0-2.8-0.1-2.8-0.1c-32.1-1-43.5-22-47.4-34.5
					c0-0.1,0-0.3,0-0.4c0.1-0.1,0.2-0.2,0.3-0.2l1.2-0.3c3.4-0.9,5.9-3.1,6.1-3.3c0.1-0.1,0.2-0.2,0.4-0.2c0.3,0,0.5,0.2,0.5,0.4
					c1.6,10.7,6.7,19.3,15.7,26.4c6.2,4.9,15,7.5,25.4,7.5c0,0,0,0,0,0c14,0,26.5-4.5,30.5-7.5c8.8-6.6,14-15.5,15.7-26.4
					c0-0.3,0.3-0.4,0.5-0.4c0.1,0,0.3,0.1,0.4,0.2c0.2,0.1,2.7,2.4,6.1,3.3l1.5,0.4c0.3,0.1,0.4,0.3,0.4,0.6
					C244.1,96.2,207.5,98.7,196.4,98.7z M147.3,64.3c4,12.2,15.2,32.3,46.3,33.3c0,0,1,0.1,2.8,0.1c10.8,0,46.6-2.4,53.2-33.2
					l-1-0.3c-2.3-0.6-4.6-2-5.8-3c-1.8,10.8-7.2,19.6-15.9,26.1c-4.9,3.7-18.2,7.7-31.1,7.7c0,0,0,0,0,0c-10.6,0-19.6-2.7-26-7.7
					c-8.9-7-14.1-15.6-15.9-26.1c-1.2,1-3.6,2.3-5.8,3L147.3,64.3z"/>
			</g>
		</g>
	</g>
</g>
</svg>
