<?xml version="1.0" encoding="utf-8"?>
<!-- Generator: Adobe Illustrator 22.0.1, SVG Export Plug-In . SVG Version: 6.00 Build 0)  -->
<svg version="1.1" id="Layer_1" xmlns="http://www.w3.org/2000/svg" xmlns:xlink="http://www.w3.org/1999/xlink" x="0px" y="0px"
	 viewBox="0 0 394.6 394.6" style="enable-background:new 0 0 394.6 394.6;" xml:space="preserve">
<style type="text/css">
	.st0{fill:#263248;}
	.st1{fill:#060F1C;}
	.st2{fill:#1A2230;}
	.st3{fill:#161D28;}
	.st4{fill:#040B14;}
	.st5{fill:#FDB813;}
	.st6{fill:#FFCA00;}
	.st7{fill:#07101F;}
</style>
<g>
	<g>
		<rect x="71" y="126.1" class="st0" width="15.3" height="30.9"/>
		<rect x="314.3" y="126.1" class="st0" width="15.3" height="30.9"/>
	</g>
	<rect x="308.6" y="121.2" class="st1" width="15.3" height="40.7"/>
	<rect x="76.9" y="121.2" class="st1" width="15.3" height="40.7"/>
	<rect x="308.6" y="121.2" class="st1" width="15.3" height="40.7"/>
	<g>
		<path class="st0" d="M135.6,50.5c-26.2,0-47.5,21.3-47.5,47.5v147.8h0.1c0,50.7,41.1,91.8,91.8,91.8h20.3V50.5H135.6z"/>
		<path class="st2" d="M312.4,241.9V98c0-26.2-21.3-47.5-47.5-47.5h-64.7v287.1h20.4c50.7,0,91.8-41.1,91.8-91.8
			C312.5,244.5,312.5,243.2,312.4,241.9z"/>
	</g>
	<g>
		<path class="st2" d="M88.2,232.8v13h0.1c0,50.7,41.1,91.8,91.8,91.8h20.3V232.8H88.2z"/>
		<path class="st3" d="M312.4,241.9v-9.1H200.3v104.8h20.4c50.7,0,91.8-41.1,91.8-91.8C312.5,244.5,312.5,243.2,312.4,241.9z"/>
	</g>
	<g>
		<rect x="88.2" y="232.8" class="st1" width="112.1" height="12.5"/>
		<path class="st4" d="M312.4,241.9v-9.1H200.3v12.5h112.2C312.5,244.1,312.5,243,312.4,241.9z"/>
	</g>
	<g>
		<rect x="200.3" y="102" class="st5" width="91.5" height="100.7"/>
		<rect x="109" y="102" class="st6" width="91.3" height="100.7"/>
	</g>
	<g>
		<rect x="117.7" y="112" class="st7" width="82.6" height="80.7"/>
		<rect x="200.3" y="112" class="st4" width="82.8" height="80.7"/>
	</g>
</g>
</svg>
