<?xml version="1.0" encoding="utf-8"?>
<!-- Generator: Adobe Illustrator 22.0.1, SVG Export Plug-In . SVG Version: 6.00 Build 0)  -->
<svg version="1.1" id="Layer_1" xmlns="http://www.w3.org/2000/svg" xmlns:xlink="http://www.w3.org/1999/xlink" x="0px" y="0px"
	 viewBox="0 0 394.6 394.6" style="enable-background:new 0 0 394.6 394.6;" xml:space="preserve">
<style type="text/css">
	.st0{fill:#FF8D23;}
	.st1{fill:#FFCA00;}
	.st2{fill:#FDB813;}
</style>
<g>
	<path class="st0" d="M98.1,139L98.1,139l43.3,75.1l-1.1,112h92.2l-4.3-92.9v-2c0,0,3.2-47.9,3.8-58.7c0.3-4.6,0.3-27.6-0.2-34.6h0
		l-0.8-57.1l0,0c0,0,0,0,0,0c0-4.2-3.7-7.7-8.2-7.7c-4.5,0-8.2,3.4-8.2,7.7c0,0,0,0,0,0h0l-1.6,57.1h-1.3l-1.6-78.5h0c0,0,0,0,0,0
		c0-4.2-4.3-7.7-9.5-7.7c-5.3,0-9.5,3.4-9.5,7.7c0,0,0,0,0,0l0,0l-1.3,78.5h-1.2l-1.2-91.7c0-4.2-4.3-7.7-9.5-7.7
		c-5.3,0-9.5,3.4-9.5,7.7l-1,91.7h-0.8l-1.9-83.5l0,0c0-4.2-4.3-7.7-9.5-7.7c-5.3,0-9.5,3.4-9.5,7.7h0v0v0v0
		c0,0-0.1,101.6,0.2,108.1c0,0-26.9-40-27-40.1c-3.6-4.4-12.2-5-17.9-0.3C95.2,126.6,94.7,134.6,98.1,139z"/>
	<g>
		<path class="st1" d="M153.3,159.4L153.3,159.4l43.3,75.1l-1.1,112h92.2l-4.3-92.9v-2c0,0,3.2-47.9,3.8-58.7
			c0.3-4.6,0.3-27.6-0.2-34.6h0l-0.8-57.1h0c0,0,0,0,0,0c0-4.2-3.7-7.7-8.2-7.7c-4.5,0-8.2,3.4-8.2,7.7c0,0,0,0,0,0l0,0l-1.6,57.1
			H267l-1.6-78.5h0c0,0,0,0,0,0c0-4.2-4.3-7.7-9.5-7.7c-5.3,0-9.5,3.4-9.5,7.7c0,0,0,0,0,0l0,0l-1.3,78.5h-1.2l-1.2-91.7
			c0-4.2-4.3-7.7-9.5-7.7c-5.3,0-9.5,3.4-9.5,7.7l-1,91.7h-0.8l-1.9-83.5l0,0c0-4.2-4.3-7.7-9.5-7.7s-9.5,3.4-9.5,7.7l0,0v0v0v0
			c0,0-0.1,101.6,0.2,108.1c0,0-26.9-40-27-40.1c-3.6-4.4-12.2-5-17.9-0.3C150.5,147.1,149.9,155,153.3,159.4z"/>
		<polygon class="st2" points="285.6,297.7 285.3,290.9 196.1,290.9 196.1,297.7 		"/>
		<polygon class="st2" points="195.7,340.6 195.6,345.8 287.8,345.8 287.6,340.6 		"/>
		<g>
			<rect x="220.1" y="292.7" class="st2" width="9.1" height="53.8"/>
			<rect x="203.3" y="292.7" class="st2" width="9.1" height="53.8"/>
			<rect x="236.9" y="292.7" class="st2" width="9.1" height="53.8"/>
			<rect x="270.6" y="292.7" class="st2" width="9.1" height="53.8"/>
			<rect x="253.7" y="292.7" class="st2" width="9.1" height="53.8"/>
			<polygon class="st2" points="287.4,337 287.4,346.5 287.8,346.5 			"/>
		</g>
	</g>
</g>
</svg>
