<?xml version="1.0" encoding="utf-8"?>
<!-- Generator: Adobe Illustrator 22.0.1, SVG Export Plug-In . SVG Version: 6.00 Build 0)  -->
<svg version="1.1" id="Layer_1" xmlns="http://www.w3.org/2000/svg" xmlns:xlink="http://www.w3.org/1999/xlink" x="0px" y="0px"
	 viewBox="0 0 394.6 394.6" style="enable-background:new 0 0 394.6 394.6;" xml:space="preserve">
<style type="text/css">
	.st0{fill:#1A2230;}
	.st1{fill:#263248;}
	.st2{fill:#133054;}
	.st3{fill:#CCDCFF;}
	.st4{fill:#DEE8FF;}
	.st5{opacity:0.4;}
	.st6{fill:#173B66;}
</style>
<g>
	<g>
		<path class="st0" d="M333.7,247.8C254,228.5,248.4,102.9,143,84.6c-6.5-1.3-13.3-6.9-7.8-13.6l0,0c5.5-7,16.5-11.2,25.2-9.4
			c79.7,19.2,179.9,118.6,190.8,163.2C359.4,246.3,342.5,249.5,333.7,247.8z"/>
	</g>
	<g>
		<path class="st1" d="M62.8,247.8c79.7-19.2,85.3-144.9,190.8-163.2c6.5-1.3,13.3-6.9,7.8-13.6l0,0c-5.5-7-16.5-11.2-25.2-9.4
			C156.4,80.8,56.2,180.1,45.4,224.8C37.1,246.3,54,249.5,62.8,247.8z"/>
	</g>
	<g>
		<path class="st2" d="M116.5,187.6c-36.3,0-73.1,15.3-73.9,51.5c-0.8,37.1,37.6,84.7,73.9,85.1c31.8,0.4,46.7-11.9,56.3-28.5
			c7.1-12.2,11.4-25.5,25.5-25.5v-82.7H116.5z"/>
		<path class="st0" d="M280.1,187.6h-81.8v82.7c14.1,0,18.4,13.3,25.5,25.5c9.7,16.5,24.5,28.9,56.3,28.5
			c36.3-0.4,74.7-48,73.9-85.1C353.2,202.9,316.4,187.6,280.1,187.6z"/>
	</g>
	<g>
		<path class="st3" d="M323.4,211.3c-10.9-6.6-26.3-10.2-43.3-10.2h-81.8v55.7h0c19.8,0,28,15.3,34,26.4c1.1,2,2.1,3.9,3.2,5.7
			c6.6,11.3,16.4,21.8,43.2,21.8c0.4,0,0.9,0,1.3,0c11.4-0.1,24.8-7.2,36.6-19.5c12.3-12.8,20.9-28.9,23.3-43.2
			c0.5-3,0.7-5.9,0.7-8.6C340.2,227.3,334.6,218.1,323.4,211.3z"/>
		<path class="st4" d="M116.5,201.1c-17,0-32.3,3.6-43.3,10.2c-11.2,6.8-16.8,16-17.1,28.1c-0.1,2.8,0.2,5.7,0.7,8.7
			c2.4,14.3,11,30.4,23.3,43.2c11.8,12.2,25.2,19.3,36.6,19.5c0.4,0,0.9,0,1.3,0c26.8,0,36.6-10.5,43.2-21.8
			c1.1-1.8,2.1-3.7,3.2-5.7c6-11.2,14.2-26.4,34-26.4v-55.7H116.5z"/>
	</g>
	<g class="st5">
		<path class="st2" d="M339.8,248.1c-2.2,0.2-4.3,0-6.1-0.4c-26.5-6.4-44.8-24.6-61.3-46.6h7.7c17,0,32.4,3.6,43.3,10.2
			c11.2,6.8,16.8,16,17.1,28.1C340.6,242.2,340.3,245.1,339.8,248.1z"/>
	</g>
	<g class="st5">
		<path class="st6" d="M116.5,201.1h7.6c-16.5,22.1-34.8,40.2-61.3,46.6c-1.8,0.4-3.8,0.5-6,0.4c-0.5-3-0.7-5.9-0.7-8.7
			c0.3-12.1,5.9-21.3,17.1-28.1C84.1,204.8,99.5,201.1,116.5,201.1z"/>
	</g>
</g>
</svg>
