<?xml version="1.0" encoding="utf-8"?>
<!-- Generator: Adobe Illustrator 22.0.1, SVG Export Plug-In . SVG Version: 6.00 Build 0)  -->
<svg version="1.1" id="Layer_1" xmlns="http://www.w3.org/2000/svg" xmlns:xlink="http://www.w3.org/1999/xlink" x="0px" y="0px"
	 viewBox="0 0 394.6 394.6" style="enable-background:new 0 0 394.6 394.6;" xml:space="preserve">
<style type="text/css">
	.st0{fill:#929292;}
	.st1{fill:#2E3131;}
	.st2{fill:#FF9300;}
	.st3{fill:#EB7200;}
	.st4{fill:#212222;}
	.st5{fill:#A4A4A4;}
	.st6{fill:#FF7F00;}
	.st7{fill:#CACACA;}
</style>
<g>
	<polygon class="st0" points="149.1,85.7 149.1,82.9 69.1,82.9 64.5,85.7 69.1,88.4 149.1,88.4 	"/>
	<path class="st1" d="M146.7,96.4c-2.6,0-4.7-2.1-4.7-4.7v-12c0-2.6,2.1-4.7,4.7-4.7l0,0c2.6,0,4.7,2.1,4.7,4.7v12
		C151.4,94.3,149.3,96.4,146.7,96.4L146.7,96.4z"/>
	<polygon class="st2" points="355,82.1 345.3,72.9 251.5,59.5 221,64.6 200.3,65 163.2,64.4 146.1,73.6 146.1,98.5 163.2,110.1 
		196.1,113.8 221,121.7 242.3,145.4 314.2,145.4 355,129 	"/>
	<polygon class="st1" points="221,64.6 200.3,65 163.2,64.4 146.1,73.6 146.1,98.5 163.2,110.1 196.1,113.8 221,121.7 	"/>
	<polygon class="st1" points="355,82.1 345.3,72.9 333.8,71.3 330.8,125.5 314,134.5 314.2,145.4 355,129 	"/>
	<polygon class="st3" points="221,107.8 242.2,129.2 314,134.5 314.2,145.4 242.3,145.4 221,121.7 	"/>
	<path class="st4" d="M312,121.7c-1.1,0-1.9-0.9-1.9-1.9V89.6c0-1.1,0.9-1.9,1.9-1.9l0,0c1.1,0,1.9,0.9,1.9,1.9v30.2
		C314,120.8,313.1,121.7,312,121.7L312,121.7z"/>
	<path class="st4" d="M304.3,121.7c-1.1,0-1.9-0.9-1.9-1.9V89.6c0-1.1,0.9-1.9,1.9-1.9l0,0c1.1,0,1.9,0.9,1.9,1.9v30.2
		C306.2,120.8,305.4,121.7,304.3,121.7L304.3,121.7z"/>
	<path class="st4" d="M296.5,121.7c-1.1,0-1.9-0.9-1.9-1.9V89.6c0-1.1,0.9-1.9,1.9-1.9l0,0c1.1,0,1.9,0.9,1.9,1.9v30.2
		C298.5,120.8,297.6,121.7,296.5,121.7L296.5,121.7z"/>
	<g>
		<path class="st3" d="M238.5,78.1c-0.6-0.1-1-0.6-1-1.1l0,0c0.1-0.6,0.6-1,1.1-1l49.8,4.5c0.6,0.1,1,0.6,1,1.1l0,0
			c-0.1,0.6-0.6,1-1.1,1L238.5,78.1z"/>
		<path class="st3" d="M237.7,86.5c-0.6-0.1-1-0.6-1-1.1l0,0c0-0.6,0.6-1,1.1-1l49.8,4.5c0.6,0.1,1,0.6,1,1.1l0,0
			c-0.1,0.6-0.6,1-1.1,0.9L237.7,86.5z"/>
		<path class="st3" d="M236.9,94.9c-0.6-0.1-1-0.6-1-1.1l0,0c0.1-0.6,0.6-1,1.1-1l49.8,4.5c0.6,0.1,1,0.6,1,1.1l0,0
			c-0.1,0.6-0.6,1-1.1,1L236.9,94.9z"/>
		<path class="st3" d="M236.2,103.2c-0.6-0.1-1-0.6-1-1.1l0,0c0.1-0.6,0.6-1,1.1-1l49.8,4.5c0.6,0.1,1,0.6,1,1.1l0,0
			c-0.1,0.6-0.6,1-1.1,1L236.2,103.2z"/>
		<path class="st3" d="M235.4,111.6c-0.6-0.1-1-0.6-1-1.1l0,0c0.1-0.6,0.6-1,1.1-1l49.8,4.5c0.6,0.1,1,0.6,1,1.1l0,0
			c-0.1,0.6-0.6,1-1.1,1L235.4,111.6z"/>
	</g>
	<polygon class="st4" points="163.2,110.1 163.2,64.4 146.1,73.6 146.1,98.5 	"/>
	<polygon class="st2" points="298.5,145.4 294.6,161.2 310.1,247.2 314,284.2 304.3,294.5 204.2,294.5 198.5,281.1 204.2,258 
		211.9,247.7 262.7,234.8 267.6,220 256.3,177.4 246.4,170.5 242.3,145.4 	"/>
	<polygon class="st1" points="204.2,294.5 304.3,294.5 314,284.2 311.5,260.6 204.2,258 198.5,281.1 	"/>
	<polygon class="st4" points="330.8,125.5 355,129 314.2,145.4 314,134.5 	"/>
	<path class="st4" d="M294.6,161.2c0,0,12.3,14.2,15.5,41.5c0,0,0.9,22.4-3.3,26.4l-10.3-1.3c0,0-6.4-33.8-11.4-42.6
		C285.1,185.2,277.1,169.3,294.6,161.2z"/>
	<polygon class="st4" points="242.3,145.4 232.8,167.9 235.2,173.6 246.4,170.5 	"/>
	<polygon class="st4" points="314,284.2 198.5,281.1 204.2,294.5 304.3,294.5 	"/>
	<polygon class="st4" points="221,64.6 200.3,65 196.1,113.8 221,121.7 	"/>
	<g>
		<polygon class="st5" points="113.1,88.4 118.6,82.9 114.4,82.9 108.9,88.4 		"/>
		<polygon class="st5" points="133.3,82.9 127.9,88.4 132.1,88.4 137.5,82.9 		"/>
		<polygon class="st5" points="122.6,88.4 128.1,82.9 123.9,82.9 118.4,88.4 		"/>
		<polygon class="st5" points="103.6,88.4 109.1,82.9 104.9,82.9 99.4,88.4 		"/>
		<polygon class="st5" points="94.2,88.4 99.6,82.9 95.4,82.9 90,88.4 		"/>
		<polygon class="st5" points="75.2,88.4 80.6,82.9 76.4,82.9 71,88.4 		"/>
		<polygon class="st5" points="84.7,88.4 90.1,82.9 85.9,82.9 80.5,88.4 		"/>
	</g>
</g>
<g>
	<path class="st5" d="M99.2,166.7c0,0-2.4-6.5,0.3-10.3l-6.6-2.2l-1.8-3.6l-3.6,1.8l-0.8-0.3l-0.6,0.9l-7.9,3.9l2.2,4.5l-4.5,6.7
		c0,0,7.1-1.5,10.3,4.9l23.5,47l12.9-6.5L99.2,166.7z"/>
	<g>
		<polygon class="st0" points="87.5,152.4 86.7,152.2 86.1,153.1 		"/>
		<path class="st0" d="M80.3,166l4.5-6.7l-2.2-4.5l-4.4,2.2l2.2,4.5l-4.5,6.7c0,0,7.1-1.5,10.3,4.9l23.5,47l4.4-2.2l-23.5-47
			C87.4,164.5,80.3,166,80.3,166z"/>
	</g>
	<path class="st2" d="M125.1,210.6l-18.6,9.3c0,0,33.3,73.3,47.6,98.5c0,0,15.6,27,12.9,36.7l26.9-13.4c0,0-34-73-50.1-100.2
		L125.1,210.6z"/>
	<path class="st6" d="M160.9,315c-14.3-25.2-47.6-98.5-47.6-98.5l-6.8,3.4c0,0,33.3,73.3,47.6,98.5c0,0,15.6,27,12.9,36.7l6.8-3.4
		C176.5,342.1,160.9,315,160.9,315z"/>
	<path class="st1" d="M161.9,275.5c-4.7,4.4-11.9,10.5-21.4,16.6c5.2,10.5,10,19.9,13.6,26.3c0,0,15.6,27,12.9,36.7l26.9-13.4
		C193.9,341.7,177.4,306.2,161.9,275.5z"/>
	<path class="st4" d="M160.9,315c-3.7-6.5-8.7-16.3-14-27.2c-2,1.4-4.1,2.9-6.4,4.3c5.2,10.5,10,19.9,13.6,26.3
		c0,0,15.6,27,12.9,36.7l6.8-3.4C176.5,342.1,160.9,315,160.9,315z"/>
	
		<rect x="69.3" y="140.3" transform="matrix(0.8946 -0.447 0.447 0.8946 -59.2116 52.892)" class="st7" width="26.4" height="23.3"/>
	
		<rect x="38.7" y="161.2" transform="matrix(0.8946 -0.447 0.447 0.8946 -71.7646 38.0028)" class="st7" width="11.9" height="19.8"/>
	<path class="st5" d="M75.9,168.3l-10.4-20.8c-6.5,9.6-19.9,12.2-19.9,12.2l8.8,17.7C65.2,167,75.9,168.3,75.9,168.3z"/>
	<path class="st5" d="M89.1,135.6l10.4,20.8c0,0,6.6-19.3,46.4,5.4l2.9-1.4C148.8,160.4,120.7,129.4,89.1,135.6z"/>
	<path class="st0" d="M61.1,152.2l8.3,16.7c3.9-0.9,6.5-0.6,6.5-0.6l-10.4-20.8C64.2,149.3,62.7,150.9,61.1,152.2z"/>
</g>
</svg>
