<?xml version="1.0" encoding="utf-8"?>
<!-- Generator: Adobe Illustrator 22.0.1, SVG Export Plug-In . SVG Version: 6.00 Build 0)  -->
<svg version="1.1" id="Layer_1" xmlns="http://www.w3.org/2000/svg" xmlns:xlink="http://www.w3.org/1999/xlink" x="0px" y="0px"
	 viewBox="0 0 394.6 394.6" style="enable-background:new 0 0 394.6 394.6;" xml:space="preserve">
<style type="text/css">
	.st0{fill:#1A2230;}
	.st1{fill:#D46B0B;}
	.st2{fill:#EBA600;}
	.st3{fill:#FF8D23;}
	.st4{fill:#FFA200;}
	.st5{fill:#FDB813;}
	.st6{fill:#FFCA00;}
	.st7{fill:#263248;}
	.st8{fill:#FFCD00;}
</style>
<g>
	<g>
		<path class="st0" d="M332.9,286.3c-1.4,14.4-19.7,28.8-43.8,31.1c-49.2,4.8-49.3-8.9-78.4-10.3c-5.2-0.2-9.9-0.6-14.1-0.7
			l0.8-15.4c0-1.5-6.8,0-8.2,0h-30.1c-1.5,0-2.6,1.2-2.6,2.6v1h-0.2c-5.3,0-11.2-5.7-13.5-3.1c-0.1-1.9-0.1-3.5-0.1-3.5
			c-1.2,0.1-0.5,11.3-0.1,14.1c0,0,0,0,0,0c0.3,3.5,1,7.7,2.4,13.7c1.4,5.9,5.3,11.1,10.8,12.5c0.2-0.8,0.9-1.4,1.7-1.4l0.2,0
			c0.9,0,1.7,0.8,1.6,1.7l0,0h6.8c0.3-0.8,1.1-1.3,2-1.3h2.5c0.9,0,1.7,0.6,2,1.3h6.6h1.5c0.3-0.8,1.1-1.3,2-1.3h2.5
			c0.9,0,1.7,0.6,2,1.3h5.9c1.5,0,2.6-1.2,2.6-2.6l0.7-13.6c4.1-1,8.8-1.6,14.5-1.3c19.2,0.9,19.1,5.9,33.8,14.3
			c2.9,1.6,7.5,2.6,13.1,3.2c0.3-0.7,1.1-1.3,2-1.3h2.5c1,0,1.9,0.7,2.1,1.6c3.9,0.1,8,0.1,12.2-0.1c0.3-0.9,1.1-1.5,2.1-1.5h2.5
			c0.8,0,1.5,0.5,1.9,1.1c2.1-0.2,4.2-0.3,6.3-0.5c1.2-0.1,2.3-0.3,3.5-0.4c0.2-0.8,0.8-1.4,1.6-1.6l2.5-0.6
			c0.9-0.2,1.8,0.2,2.3,0.9c4-1,7.7-2.3,11.1-3.9c-0.3-1,0.2-2.1,1.2-2.5l2.3-1.1c0.8-0.4,1.8-0.2,2.4,0.4c10.6-6.6,17.2-16,17.3-25
			C333.3,293.5,333.3,286.3,332.9,286.3z"/>
		<path class="st1" d="M332.7,284.1c-1.4,14.4-19.7,28.3-43.8,30.6c-49.2,4.8-49.3-9.4-78.4-10.7c-25.1-1.2-31.8,7.9-52.9,4
			c-9.3-1.7-14.7-12-14.9-19.5c0-0.2,0-0.4,0-0.6c-1.2,0.1-0.8,3.5-0.4,5.3c1.6,7.3,6.9,17,16.1,18.7c21.1,3.9,27-5.1,52.1-4
			c29.2,1.3,29.2,15.5,78.4,10.7c25.3-2.5,43.9-18.7,44.1-33.8C333,284.2,333,284.1,332.7,284.1z"/>
		<g>
			<path class="st2" d="M333,281.6c-0.7-23.4-14.1-29.4-29.2-27.9c-31.6,3.3-43.3-0.9-53.4-14.2c-11.3-14.8-1.3-125.2,4.4-179.6
				H135.1c2.8,25.7,6.5,62,8.1,85.1c1.3,19.4,2.4,37.9,3.2,53.5c1.2,21.5,3.4,44.6,3.5,45.7c1.3,14.3-7.9,20-7.2,44.3
				c0.2,7.5,5.6,17.8,14.9,19.5c21.1,3.9,27.8-5.2,52.9-4c29.2,1.3,29.2,15.5,78.4,10.7C314.2,312.2,333.4,296.8,333,281.6z"/>
		</g>
		<g>
			<path class="st3" d="M288.9,314.7c-49.2,4.8-49.3-9.4-78.4-10.7c-25.1-1.2-31.8,7.9-52.9,4c-9.3-1.7-14.7-12-14.9-19.5
				c-0.7-24.3,8.5-29.9,7.2-44.3c0-0.4-0.3-3.4-0.7-8.1c-0.8-8.8-2-23.5-2.7-37.6c-0.9-15.6-1.9-34.1-3.2-53.5
				c-1-14.9-2.9-35.3-4.9-54.8c-1.1-10.7-2.2-21.2-3.2-30.3h119.7c-5.7,54.5-15.7,164.8-4.4,179.6c10,13.2,21.8,17.4,53.4,14.2
				c15.1-1.6,28.5,4.5,29.2,27.9C333.4,296.8,314.2,312.2,288.9,314.7z"/>
		</g>
		<g>
			<path class="st0" d="M248.5,129.4c1.9-25.7,4.4-50.8,6.3-69.5H135.1c2.2,20.4,5,47.6,6.9,69.5H248.5z"/>
		</g>
		<path class="st3" d="M254.8,59.9v-6c0-2.2-1.8-4-4-4H139c-2.2,0-4,1.8-4,4v6H254.8z"/>
		<path class="st0" d="M187.2,110.9v104.5c0,11.4-9.2,20.6-20.6,20.6h-17.4c-0.8-8.8-2-23.5-2.7-37.6c-0.9-15.6-1.9-34.1-3.2-53.5
			c-1-14.9-2.9-35.3-4.9-54.8h28.3C177.9,90.3,187.2,99.5,187.2,110.9z"/>
		<path class="st2" d="M178.2,201.1c0,6.7-5.5,12.2-12.2,12.2l0,0c-6.7,0-12.2-5.5-12.2-12.2v-10.3c0-6.7,5.5-12.2,12.2-12.2l0,0
			c6.7,0,12.2,5.5,12.2,12.2V201.1z"/>
		<rect x="187.2" y="110.9" class="st3" width="56.4" height="8.5"/>
		<rect x="187.2" y="94.1" class="st3" width="56.4" height="8.5"/>
	</g>
	<g>
		<path class="st0" d="M268.2,303.9c-1.4,14.4-19.7,28.8-43.8,31.1c-49.2,4.8-49.3-8.9-78.4-10.3c-5.2-0.2-9.9-0.6-14.1-0.7
			l0.8-15.4c0-1.5-6.8,0-8.2,0H94.3c-1.5,0-2.6,1.2-2.6,2.6v1h-0.2c-5.3,0-11.2-5.7-13.5-3.1c-0.1-1.9-0.1-3.5-0.1-3.5
			c-1.2,0.1-0.5,11.3-0.1,14.1c0,0,0,0,0,0c0.3,3.5,1,7.7,2.4,13.7c1.4,5.9,5.3,11.1,10.8,12.5c0.2-0.8,0.9-1.4,1.7-1.4l0.2,0
			c0.9,0,1.7,0.8,1.6,1.7l0,0h6.8c0.3-0.8,1.1-1.3,2-1.3h2.5c0.9,0,1.7,0.6,2,1.3h6.6h1.5c0.3-0.8,1.1-1.3,2-1.3h2.5
			c0.9,0,1.7,0.6,2,1.3h5.9c1.5,0,2.6-1.2,2.6-2.6l0.7-13.6c4.1-1,8.8-1.6,14.5-1.3c19.2,0.9,19.1,5.9,33.8,14.3
			c2.9,1.6,7.5,2.6,13.1,3.2c0.3-0.7,1.1-1.3,2-1.3h2.5c1,0,1.9,0.7,2.1,1.6c3.9,0.1,8,0.1,12.2-0.1c0.3-0.9,1.1-1.5,2.1-1.5h2.5
			c0.8,0,1.5,0.5,1.9,1.1c2.1-0.2,4.2-0.3,6.3-0.5c1.2-0.1,2.3-0.3,3.5-0.4c0.2-0.8,0.8-1.4,1.6-1.6l2.5-0.6
			c0.9-0.2,1.8,0.2,2.3,0.9c4-1,7.7-2.3,11.1-3.9c-0.3-1,0.2-2.1,1.2-2.5l2.3-1.1c0.8-0.4,1.8-0.2,2.4,0.4c10.6-6.6,17.2-16,17.3-25
			C268.5,311.1,268.5,303.9,268.2,303.9z"/>
		<path class="st4" d="M267.9,301.7c-1.4,14.4-19.7,28.3-43.8,30.6c-49.2,4.8-49.3-9.4-78.4-10.7c-25.1-1.2-31.8,7.9-52.9,4
			c-9.3-1.7-14.7-12-14.9-19.5c0-0.2,0-0.4,0-0.6c-1.2,0.1-0.8,3.5-0.4,5.3c1.6,7.3,6.9,17,16.1,18.7c21.1,3.9,27-5.1,52.1-4
			c29.2,1.3,29.2,15.5,78.4,10.7c25.3-2.5,43.9-18.7,44.1-33.8C268.2,301.8,268.2,301.7,267.9,301.7z"/>
		<g>
			<path class="st5" d="M268.2,299.3c-0.7-23.4-14.1-29.4-29.2-27.9c-31.6,3.3-43.3-0.9-53.4-14.2c-11.3-14.8-1.3-125.2,4.4-179.6
				H70.3c2.8,25.7,6.5,62,8.1,85.1c1.3,19.4,2.4,37.9,3.2,53.5c1.2,21.5,3.4,44.6,3.5,45.7c1.3,14.3-7.9,20-7.2,44.3
				c0.2,7.5,5.6,17.8,14.9,19.5c21.1,3.9,27.8-5.2,52.9-4c29.2,1.3,29.2,15.5,78.4,10.7C249.4,329.8,268.7,314.4,268.2,299.3z"/>
		</g>
		<g>
			<path class="st6" d="M224.1,332.3c-49.2,4.8-49.3-9.4-78.4-10.7c-25.1-1.2-31.8,7.9-52.9,4c-9.3-1.7-14.7-12-14.9-19.5
				c-0.8-28.7,8.5-29.9,7.2-44.3c0-0.4-0.3-3.4-0.7-8.1c-0.8-8.8-2-23.5-2.7-37.6c-0.9-15.6-1.9-34.1-3.2-53.5
				c-1-14.9-2.9-35.3-4.9-54.8c-1.1-10.7-2.2-21.2-3.2-30.3H190c-5.7,54.5-15.7,164.8-4.4,179.6c10,13.2,21.8,17.4,53.4,14.2
				c15.1-1.6,28.5,4.5,29.2,27.9C268.7,314.4,249.4,329.8,224.1,332.3z"/>
		</g>
		<g>
			<path class="st7" d="M183.7,147c1.9-25.7,4.4-50.8,6.3-69.5H70.3c2.2,20.4,5,47.6,6.9,69.5H183.7z"/>
		</g>
		<path class="st8" d="M190,77.5v-6c0-2.2-1.8-4-4-4H74.3c-2.2,0-4,1.8-4,4v6H190z"/>
		<path class="st7" d="M122.4,128.5v104.5c0,11.4-9.2,20.6-20.6,20.6H84.4c-0.8-8.8-2-23.5-2.7-37.6c-0.9-15.6-1.9-34.1-3.2-53.5
			c-1-14.9-2.9-35.3-4.9-54.8h28.3C113.2,107.9,122.4,117.1,122.4,128.5z"/>
		<path class="st8" d="M113.5,218.7c0,6.7-5.5,12.2-12.2,12.2l0,0c-6.7,0-12.2-5.5-12.2-12.2v-10.3c0-6.7,5.5-12.2,12.2-12.2l0,0
			c6.7,0,12.2,5.5,12.2,12.2V218.7z"/>
		<rect x="122.4" y="128.5" class="st8" width="56.4" height="8.5"/>
		<rect x="122.4" y="111.7" class="st8" width="56.4" height="8.5"/>
	</g>
</g>
</svg>
