<?xml version="1.0" encoding="utf-8"?>
<!-- Generator: Adobe Illustrator 22.0.1, SVG Export Plug-In . SVG Version: 6.00 Build 0)  -->
<svg version="1.1" id="Layer_1" xmlns="http://www.w3.org/2000/svg" xmlns:xlink="http://www.w3.org/1999/xlink" x="0px" y="0px"
	 viewBox="0 0 394.6 394.6" style="enable-background:new 0 0 394.6 394.6;" xml:space="preserve">
<style type="text/css">
	.st0{fill:#D0CDCA;}
	.st1{fill:#817C75;}
	.st2{fill:#21211F;}
	.st3{fill:#F5D340;}
	.st4{fill:#F4E08C;}
	.st5{fill:#686863;}
	.st6{fill:#978B74;}
	.st7{fill:#B29046;}
	.st8{fill:#5C5D61;}
	.st9{fill:#76777C;}
	.st10{fill:#7F7C6E;}
	.st11{fill:#D7D7D5;}
	.st12{fill:#7E7F7A;}
	.st13{fill:#1E247C;}
	.st14{fill:#3F4AA0;}
	.st15{fill:#424242;}
	.st16{fill:#020A07;}
	.st17{fill:#5E5E5E;}
	.st18{fill:#2F3030;}
	.st19{fill:#C22F3D;}
	.st20{fill:#D35357;}
	.st21{fill:#C53139;}
	.st22{fill:#CC3D46;}
	.st23{fill:#515151;}
	.st24{fill:#C04736;}
	.st25{fill:#E06E65;}
	.st26{fill:#3C65AB;}
	.st27{fill:#6399D3;}
	.st28{fill:#2866A1;}
	.st29{fill:#4E8BCC;}
	.st30{fill:#3679C0;}
	.st31{fill:#84ACE0;}
</style>
<g id="XMLID_1090_">
	<g id="XMLID_1120_">
		<g id="XMLID_1122_">
			<polygon class="st0" points="209.3,268 209.3,315.2 205.9,313.9 185.1,306.6 185.1,268 			"/>
		</g>
		<g id="XMLID_1121_">
			<polygon class="st1" points="209.3,268 209.3,315.2 205.9,313.9 205.9,268 			"/>
		</g>
	</g>
	<g id="XMLID_1118_">
		<path class="st2" d="M221,68.6c-4.7-4.7-11.3-7.6-18.5-7.6c-14.4,0-26.1,11.7-26.1,26.1v16.2h8.6V82.1h24.4v21.2h9.1
			c-2.5,0-4.6-1.9-5-4.3c0.4-2.4,2.4-4.3,5-4.3c2.5,0,4.6,1.9,5,4.3c-0.4,2.4-2.4,4.3-5,4.3h9.2l1-14.2v-2
			C228.7,79.9,225.7,73.3,221,68.6z"/>
	</g>
	<g id="XMLID_1114_">
		<path class="st3" d="M209.4,89.1v166.2H185V89.1h-8.6v179.8c0,2.5,1.4,4.8,3.5,6l13.3,7.2c2,1.1,4.5,1.1,6.5,0l13.3-7.2
			c2.2-1.2,3.5-3.5,3.5-6l11.1-165.6l1-14.2H209.4z M218.6,103.3c-2.5,0-4.6-1.9-5-4.3c0.4-2.4,2.4-4.3,5-4.3c2.5,0,4.6,1.9,5,4.3
			C223.2,101.4,221.1,103.3,218.6,103.3z"/>
	</g>
	<g id="XMLID_1113_">
		<rect x="185" y="89.1" class="st4" width="4.9" height="166.2"/>
	</g>
	<g id="XMLID_1112_">
		<rect x="204.6" y="89.1" class="st4" width="4.9" height="166.2"/>
	</g>
	<g id="XMLID_1111_">
		<polygon class="st5" points="209.4,82.1 209.4,89.1 204.6,89.1 204.6,85.6 189.9,85.6 189.9,89.1 185,89.1 185,82.1 		"/>
	</g>
	<g id="XMLID_1110_">
		<rect x="189.9" y="85.6" class="st2" width="14.7" height="3.5"/>
	</g>
	<g id="XMLID_1109_">
		<path class="st6" d="M204.6,166.9v88.3h-14.7v-88.3c0.5,0.2,1,0.3,1.5,0.3h1.7c0,2.3,1.8,4.1,4.1,4.1c2.3,0,4.1-1.8,4.1-4.1h1.7
			C203.6,167.2,204.1,167.1,204.6,166.9z"/>
	</g>
	<g id="XMLID_1108_">
		<path class="st0" d="M204.6,165.2v88.3h-13.1v-88.3c0.4,0.2,0.9,0.3,1.4,0.3h1.5c0,2.3,1.6,4.1,3.7,4.1c2,0,3.7-1.8,3.7-4.1h1.5
			C203.7,165.4,204.2,165.3,204.6,165.2z"/>
	</g>
	<g id="XMLID_1107_">
		<path class="st7" d="M204.6,89.1v77.8c-0.5,0.2-1,0.3-1.5,0.3h-1.7c0,2.3-1.8,4.1-4.1,4.1c-2.3,0-4.1-1.8-4.1-4.1h-1.7
			c-0.5,0-1.1-0.1-1.5-0.3V89.1H204.6z"/>
	</g>
	<g id="XMLID_1104_">
		<g id="XMLID_1106_">
			<rect x="189.9" y="111.7" class="st2" width="3.2" height="51.3"/>
		</g>
		<g id="XMLID_1105_">
			<rect x="201.4" y="111.7" class="st2" width="3.2" height="51.3"/>
		</g>
	</g>
	<g id="XMLID_1096_">
		<g id="XMLID_1098_">
			<g id="XMLID_1102_">
				<g id="XMLID_1103_">
					<path class="st8" d="M207.8,142.1v10.1h-21.2v-10.1c0-2.6,2.1-4.8,4.8-4.8h11.6C205.7,137.3,207.8,139.5,207.8,142.1z"/>
				</g>
			</g>
			<g id="XMLID_1099_">
				<g id="XMLID_1101_">
					<path class="st9" d="M206.5,143.4v8.9H188v-8.9c0-2.3,1.9-4.2,4.2-4.2h10.2C204.6,139.2,206.5,141.1,206.5,143.4z"/>
				</g>
				<g id="XMLID_1100_">
					<path class="st2" d="M207.8,152.3v10.1c0,2.1-1.4,3.9-3.3,4.5c-0.5,0.2-1,0.3-1.5,0.3h-11.6c-0.5,0-1.1-0.1-1.5-0.3
						c-1.9-0.6-3.3-2.4-3.3-4.5v-10.1H207.8z"/>
				</g>
			</g>
		</g>
		<g id="XMLID_1097_">
			<path class="st2" d="M201.4,167.2c0,2.3-1.8,4.1-4.1,4.1c-2.3,0-4.1-1.8-4.1-4.1c0-2.3,1.8-4.1,4.1-4.1
				C199.5,163.1,201.4,164.9,201.4,167.2z"/>
		</g>
	</g>
	<g id="XMLID_1093_">
		<g id="XMLID_1095_">
			<path class="st9" d="M207.4,109.9v13.4c0,2.4-2,4.4-4.4,4.4h-11.6c-2.4,0-4.4-2-4.4-4.4v-13.4c0-2.4,2-4.4,4.4-4.4H203
				C205.5,105.5,207.4,107.5,207.4,109.9z"/>
		</g>
		<g id="XMLID_1094_">
			<path class="st2" d="M207.4,111.5v11.7c0,2.4-2,4.4-4.4,4.4h-11.6c-2.4,0-4.4-2-4.4-4.4v-11.7H207.4z"/>
		</g>
	</g>
	<g id="XMLID_1091_">
		<g id="XMLID_1092_">
			<path class="st7" d="M223.6,98.3c0,0.3,0,0.5-0.1,0.7c-0.4-2.4-2.4-4.3-5-4.3c-2.5,0-4.6,1.9-5,4.3c0-0.2-0.1-0.5-0.1-0.7
				c0-2.8,2.2-5,5-5C221.3,93.2,223.6,95.5,223.6,98.3z"/>
		</g>
	</g>
</g>
<g id="XMLID_1068_">
	<g id="XMLID_1089_">
		<path class="st10" d="M102.2,267c-0.3,0-0.5,0-0.8,0v0c0.2,0,0.4,0,0.7,0H102.2z"/>
	</g>
	<g id="XMLID_1084_">
		<g id="XMLID_1088_">
			<path class="st10" d="M112.1,184.3l-10.3-9.8l-4.4-4.2h-6.3l0.4,14l3,93.7v3.5c0,3.7,2.8,6.7,6.3,7.1l10.4-75.4L112.1,184.3z"/>
		</g>
		<g id="XMLID_1087_">
			<path class="st11" d="M112.5,170.3h-6.3l-4.4,4.2l-10.3,9.8l-0.6,0.5l3.4,93.2v3.5c0,3.7,2.8,6.7,6.4,7.1c0.2,0,0.4,0,0.7,0h0.1
				c-0.3,0-0.5,0-0.8,0l10.4-75.4l0.9-28.8L112.5,170.3z"/>
		</g>
		<g id="XMLID_1086_">
			<path class="st10" d="M111.2,213.1l-10.4,75.4c0.3,0,0.5,0,0.8,0h0.4c3.9,0,7.1-3.2,7.1-7.1V278L111.2,213.1z"/>
		</g>
		<g id="XMLID_1085_">
			<path class="st12" d="M106.8,196.6c0-2.8-2.2-5-5-5s-5,2.2-5,5c0,2.8,2.2,5,5,5S106.8,199.4,106.8,196.6z"/>
		</g>
	</g>
	<g id="XMLID_1069_">
		<g id="XMLID_1077_">
			<g id="XMLID_1081_">
				<path class="st13" d="M100,167V92.7h0C99.6,72.5,89.5,61,77,61c-12.7,0-23,11.9-23,32.8c0,13.4,4.2,25.2,10.6,31.9
					c0.5,0.6,1,1.1,1.7,1.6c0.2,0.1,0.3,0.3,0.5,0.4c0.1,0.1,0.2,0.1,0.3,0.2c15.5,13.4,21.4,49.4,21.4,49.4L100,167z M91,91.7
					c0,12.7-6.3,23.1-14,23.1c-7.7,0-14-10.3-14-23.1c0-12.7,6.3-20,14-20C84.8,71.7,91,79,91,91.7z"/>
			</g>
			<g id="XMLID_1078_">
				<path class="st14" d="M95.2,92.1c0-16.5-8.1-26-18.2-26s-18.2,9.4-18.2,26c0,16.5,8.1,30,18.2,30S95.2,108.7,95.2,92.1z
					 M91,91.7c0,12.7-6.3,23.1-14,23.1c-7.7,0-14-10.3-14-23.1c0-12.7,6.3-20,14-20C84.8,71.7,91,79,91,91.7z"/>
			</g>
		</g>
		<g id="XMLID_1070_">
			<g id="XMLID_1074_">
				<path class="st13" d="M115,177.3c0,0,5.9-36,21.4-49.4c0.1-0.1,0.2-0.1,0.3-0.2c0.2-0.1,0.3-0.3,0.5-0.4
					c0.7-0.5,1.2-1.1,1.7-1.6c6.4-6.7,10.6-18.5,10.6-31.9c0-20.9-10.3-32.8-23-32.8c-12.5,0-22.6,11.5-22.9,31.7h0V167L115,177.3z
					 M126.5,71.7c7.7,0,14,7.3,14,20c0,12.7-6.3,23.1-14,23.1c-7.7,0-14-10.3-14-23.1C112.5,79,118.8,71.7,126.5,71.7z"/>
			</g>
			<g id="XMLID_1071_">
				<path class="st14" d="M126.5,122.1c10,0,18.2-13.4,18.2-30c0-16.5-8.1-26-18.2-26c-10,0-18.2,9.4-18.2,26
					C108.3,108.7,116.5,122.1,126.5,122.1z M126.5,71.7c7.7,0,14,7.3,14,20c0,12.7-6.3,23.1-14,23.1c-7.7,0-14-10.3-14-23.1
					C112.5,79,118.8,71.7,126.5,71.7z"/>
			</g>
		</g>
	</g>
</g>
<g id="XMLID_54_">
	<g id="XMLID_71_">
		<g id="XMLID_86_">
			<polygon class="st15" points="268.5,220 259.2,211.7 262.5,201.3 275.9,196.7 289.2,201.3 292.5,211.7 283.3,220 			"/>
		</g>
		<g id="XMLID_82_">
			<g id="XMLID_85_">
				<rect x="259.2" y="113" class="st16" width="33.3" height="98.7"/>
			</g>
			<g id="XMLID_84_">
				<rect x="263.7" y="113" class="st17" width="24.3" height="98.7"/>
			</g>
			<g id="XMLID_83_">
				<rect x="265" y="113" class="st18" width="21.7" height="98.7"/>
			</g>
		</g>
		<g id="XMLID_81_">
			<path class="st19" d="M292.5,68.6V113h-33.3V68.6c0-1.4,1.8-2.4,4.5-3.2c0.4-0.1,0.8-0.2,1.3-0.3c6.1-1.3,15.6-1.3,21.7,0
				c0.4,0.1,0.9,0.2,1.3,0.3C290.7,66.1,292.5,67.2,292.5,68.6z"/>
		</g>
		<g id="XMLID_80_">
			<path class="st20" d="M288,65.4V113h-24.3V65.4c0.4-0.1,0.8-0.2,1.3-0.3c6.1-1.3,15.6-1.3,21.7,0C287.2,65.2,287.6,65.3,288,65.4
				z"/>
		</g>
		<g id="XMLID_79_">
			<path class="st21" d="M286.7,65.1V113H265V65.1C271.1,63.7,280.6,63.7,286.7,65.1z"/>
		</g>
		<g id="XMLID_76_">
			<g id="XMLID_78_">
				<path class="st22" d="M285,62.1V126c0,4.4-18.3,4.4-18.3,0V62.1C266.7,60.6,285,60.6,285,62.1z"/>
			</g>
			<g id="XMLID_77_">
				<path class="st21" d="M285,123.3v2.7c0,4.4-18.3,4.4-18.3,0v-2.7H285z"/>
			</g>
		</g>
		<g id="XMLID_75_">
			<polygon class="st23" points="281.2,237.9 270.6,237.9 268.5,220 283.3,220 			"/>
		</g>
		<g id="XMLID_72_">
			<g id="XMLID_74_">
				<polygon class="st24" points="278.9,237.9 278.9,244.3 274,247.8 272.8,246 272.8,237.9 				"/>
			</g>
			<g id="XMLID_73_">
				<polygon class="st25" points="278.9,244.3 278.9,244.3 274,247.8 272.8,246 272.8,244.3 				"/>
			</g>
		</g>
	</g>
	<g id="XMLID_55_">
		<g id="XMLID_70_">
			<polygon class="st15" points="317.1,220 307.9,211.7 311.2,201.3 324.5,196.7 337.9,201.3 341.2,211.7 332,220 			"/>
		</g>
		<g id="XMLID_66_">
			<g id="XMLID_69_">
				<rect x="307.9" y="113" class="st16" width="33.3" height="98.7"/>
			</g>
			<g id="XMLID_68_">
				<rect x="312.4" y="113" class="st17" width="24.3" height="98.7"/>
			</g>
			<g id="XMLID_67_">
				<rect x="313.7" y="113" class="st18" width="21.7" height="98.7"/>
			</g>
		</g>
		<g id="XMLID_65_">
			<path class="st26" d="M341.2,68.6V113h-33.3V68.6c0-1.4,1.8-2.4,4.5-3.2c0.4-0.1,0.8-0.2,1.3-0.3c6.1-1.3,15.6-1.3,21.7,0
				c0.4,0.1,0.9,0.2,1.3,0.3C339.4,66.1,341.2,67.2,341.2,68.6z"/>
		</g>
		<g id="XMLID_64_">
			<path class="st27" d="M336.7,65.4V113h-24.3V65.4c0.4-0.1,0.8-0.2,1.3-0.3c6.1-1.3,15.6-1.3,21.7,0
				C335.9,65.2,336.3,65.3,336.7,65.4z"/>
		</g>
		<g id="XMLID_63_">
			<path class="st28" d="M335.4,65.1V113h-21.7V65.1C319.8,63.7,329.3,63.7,335.4,65.1z"/>
		</g>
		<g id="XMLID_60_">
			<g id="XMLID_62_">
				<path class="st29" d="M333.7,62.1V126c0,4.4-18.3,4.4-18.3,0V62.1C315.4,60.6,333.7,60.6,333.7,62.1z"/>
			</g>
			<g id="XMLID_61_">
				<path class="st28" d="M333.7,123.3v2.7c0,4.4-18.3,4.4-18.3,0v-2.7H333.7z"/>
			</g>
		</g>
		<g id="XMLID_59_">
			<polygon class="st23" points="329.9,237.9 319.2,237.9 317.1,220 332,220 			"/>
		</g>
		<g id="XMLID_56_">
			<g id="XMLID_58_">
				<polygon class="st30" points="327.6,237.9 327.6,244.3 322.7,247.8 321.5,246 321.5,237.9 				"/>
			</g>
			<g id="XMLID_57_">
				<polygon class="st31" points="327.6,244.3 327.6,244.3 322.7,247.8 321.5,246 321.5,244.3 				"/>
			</g>
		</g>
	</g>
</g>
</svg>
