<?xml version="1.0" encoding="utf-8"?>
<!-- Generator: Adobe Illustrator 22.0.1, SVG Export Plug-In . SVG Version: 6.00 Build 0)  -->
<svg version="1.1" id="Layer_1" xmlns="http://www.w3.org/2000/svg" xmlns:xlink="http://www.w3.org/1999/xlink" x="0px" y="0px"
	 viewBox="0 0 394.6 394.6" style="enable-background:new 0 0 394.6 394.6;" xml:space="preserve">
<style type="text/css">
	.st0{fill:#235A9D;}
	.st1{fill:#1F508C;}
	.st2{fill:#CCDCFF;}
	.st3{fill:#173B66;}
	.st4{fill:#133054;}
	.st5{fill:#FFCA00;}
</style>
<g>
	<g>
		<path class="st0" d="M146,39.2c0,0-8.3-1.5-19.1,0v69.9v19.7v188.3v49.9h60.3l0.7-49.9l8.6-188.3h0.9l0.8-89.6L146,39.2z"/>
		<path class="st1" d="M267.7,39.2v89.6v188.3v49.9h-60.3l-0.7-49.9l-8.6-188.3h-0.9l0.8-89.6L267.7,39.2"/>
	</g>
	<polygon class="st2" points="126.9,251.4 126.9,271.1 189.9,271.1 190.8,251.4 	"/>
	<polygon class="st2" points="126.9,286.8 126.9,301.8 188.5,301.8 189.2,286.8 	"/>
	<polygon class="st2" points="205.4,286.8 206.1,301.8 267.7,301.8 267.7,286.8 	"/>
	<polygon class="st2" points="203.8,251.4 204.7,271.1 267.7,271.1 267.7,251.4 	"/>
	<rect x="229.6" y="163" class="st3" width="38.2" height="72.3"/>
	<rect x="229.6" y="163" class="st4" width="38.2" height="18.6"/>
	<polygon class="st3" points="126.9,90.6 126.9,43 165,43 	"/>
	<polygon class="st3" points="267.7,90.6 267.7,43 229.6,43 	"/>
	<polygon class="st5" points="158.7,50.9 165,43 126.9,43 126.9,50.9 	"/>
	<polygon class="st5" points="267.7,50.9 267.7,43 229.6,43 235.9,50.9 	"/>
	<circle class="st5" cx="251.2" cy="175.9" r="3.6"/>
	<rect x="126.9" y="31.5" class="st4" width="140.9" height="7.8"/>
</g>
</svg>
