<?xml version="1.0" encoding="utf-8"?>
<!-- Generator: Adobe Illustrator 22.0.1, SVG Export Plug-In . SVG Version: 6.00 Build 0)  -->
<svg version="1.1" id="Layer_1" xmlns="http://www.w3.org/2000/svg" xmlns:xlink="http://www.w3.org/1999/xlink" x="0px" y="0px"
	 viewBox="0 0 394.6 394.6" style="enable-background:new 0 0 394.6 394.6;" xml:space="preserve">
<style type="text/css">
	.st0{fill:#FFCA00;}
	.st1{fill:#FDB813;}
	.st2{fill:#B0800D;}
	.st3{fill:#CCDCFF;}
	.st4{fill:#C2D5FC;}
</style>
<g>
	<g>
		<path class="st0" d="M159.6,52.6l-46.9,15.5v43.5c0,42.6-23.5,65.7-39.8,65.7l0.1,0h-0.1v174.9h124.5V52.6H159.6z"/>
		<path class="st1" d="M321.8,177.3c-16.3,0-39.8-23.1-39.8-65.7V68.2L235,52.6h-37.7v299.6h124.5V177.3L321.8,177.3L321.8,177.3z"
			/>
	</g>
	<polygon class="st2" points="197.3,52.6 159.6,52.6 197.3,162.4 235,52.6 	"/>
	<rect x="187" y="52.6" class="st3" width="20.6" height="9.9"/>
	<g>
		<rect x="72.8" y="208.4" class="st4" width="124.4" height="43.3"/>
		<rect x="197.2" y="208.4" class="st3" width="124.6" height="43.3"/>
		<rect x="197.2" y="284.2" class="st3" width="124.6" height="43.3"/>
		<rect x="72.8" y="284.2" class="st4" width="124.4" height="43.3"/>
	</g>
</g>
</svg>
