<?xml version="1.0" encoding="utf-8"?>
<!-- Generator: Adobe Illustrator 22.0.1, SVG Export Plug-In . SVG Version: 6.00 Build 0)  -->
<svg version="1.1" id="Layer_1" xmlns="http://www.w3.org/2000/svg" xmlns:xlink="http://www.w3.org/1999/xlink" x="0px" y="0px"
	 viewBox="0 0 394.6 394.6" style="enable-background:new 0 0 394.6 394.6;" xml:space="preserve">
<style type="text/css">
	.st0{fill:#FDB813;}
	.st1{fill:#07273B;}
	.st2{fill:#DEE8FF;}
	.st3{fill:#CCDCFF;}
	.st4{fill:#1A2230;}
	.st5{fill:#FFFFFF;}
	.st6{fill:#060F1C;}
</style>
<g>
	<rect x="163.4" y="241.1" class="st0" width="67.3" height="27"/>
	<rect x="159.6" y="235.9" class="st1" width="75.1" height="27"/>
	<g>
		<path class="st2" d="M169.2,89L63.9,214.4c-15.3,18.3-2.8,33.2,27.9,33.2h105.3V75.3C187,75.3,176.9,79.9,169.2,89z"/>
		<path class="st3" d="M330.3,214.4L225,89c-7.7-9.1-17.8-13.7-27.9-13.7v172.2h105.3C333.1,247.6,345.6,232.6,330.3,214.4z"/>
	</g>
	<path class="st4" d="M91.8,252.2c-30.7,0-43.2-9.9-27.9-22l105.3-83c15.3-12.1,40.4-12.1,55.8,0l105.3,83c15.3,12.1,2.8,22-27.9,22
		H91.8z"/>
	<g>
		<g>
			<path class="st1" d="M246.9,270.8c-9.2-5.3-3-33.3,13.8-62.5c16.9-29.2,38-48.6,47.2-43.2c9.2,5.3,3,33.3-13.8,62.5
				C277.2,256.8,256.1,276.1,246.9,270.8z"/>
			
				<rect x="241.4" y="203.4" transform="matrix(0.5 -0.866 0.866 0.5 -50.0106 378.1259)" class="st1" width="122.1" height="57.8"/>
			<path class="st1" d="M297,299.7c-9.2-5.3-3-33.3,13.8-62.5c16.9-29.2,38-48.6,47.2-43.2c9.2,5.3,3,33.3-13.8,62.5
				C327.3,285.7,306.2,305.1,297,299.7z"/>
			<path class="st1" d="M255.2,275.6c-9.2-5.3-3-33.3,13.8-62.5c16.9-29.2,38-48.6,47.2-43.2c9.2,5.3,3,33.3-13.8,62.5
				C285.6,261.6,264.4,280.9,255.2,275.6z"/>
			<path class="st0" d="M300.7,293.2c-6.7-3.9-0.2-27.8,14.6-53.4c14.8-25.6,32.2-43.3,39-39.4c6.7,3.9,0.2,27.8-14.6,53.4
				C324.9,279.5,307.4,297.1,300.7,293.2z"/>
			<path class="st0" d="M269,213.1c16.3-28.2,36.6-47.3,46.3-43.8l-7.4-4.3c-9.2-5.3-30.4,14-47.2,43.2
				c-16.9,29.2-23.1,57.2-13.8,62.5l7.4,4.3C246.4,268.4,252.7,241.3,269,213.1z"/>
		</g>
		<g>
			<path class="st1" d="M147.3,270.8c9.2-5.3,3-33.3-13.8-62.5c-16.9-29.2-38-48.6-47.2-43.2c-9.2,5.3-3,33.3,13.8,62.5
				C117,256.8,138.1,276.1,147.3,270.8z"/>
			<rect x="62.8" y="171.3" transform="matrix(0.866 -0.5 0.5 0.866 -103.8953 77.0027)" class="st1" width="57.8" height="122.1"/>
			<ellipse transform="matrix(0.866 -0.5 0.5 0.866 -114.4825 66.4161)" class="st1" cx="66.7" cy="246.8" rx="19.3" ry="61.1"/>
			<path class="st1" d="M139,275.6c9.2-5.3,3-33.3-13.8-62.5c-16.9-29.2-38-48.6-47.2-43.2c-9.2,5.3-3,33.3,13.8,62.5
				C108.6,261.6,129.8,280.9,139,275.6z"/>
			<path class="st0" d="M93.5,293.2c6.7-3.9,0.2-27.8-14.6-53.4c-14.8-25.6-32.2-43.3-39-39.4c-6.7,3.9-0.2,27.8,14.6,53.4
				C69.3,279.5,86.8,297.1,93.5,293.2z"/>
			<path class="st0" d="M125.2,213.1c-16.3-28.2-36.6-47.3-46.3-43.8l7.4-4.3c9.2-5.3,30.4,14,47.2,43.2
				c16.9,29.2,23.1,57.2,13.8,62.5l-7.4,4.3C147.8,268.4,141.5,241.3,125.2,213.1z"/>
		</g>
	</g>
	<g>
		
			<ellipse transform="matrix(0.987 -0.1607 0.1607 0.987 -29.1845 34.2361)" class="st5" cx="197.1" cy="197.6" rx="47.2" ry="47.2"/>
		
			<ellipse transform="matrix(0.3806 -0.9247 0.9247 0.3806 -60.6216 304.6449)" class="st6" cx="197.1" cy="197.6" rx="43" ry="43"/>
		
			<ellipse transform="matrix(0.987 -0.1606 0.1606 0.987 -29.1691 34.2149)" class="st5" cx="197.1" cy="197.6" rx="38.3" ry="38.3"/>
		<path class="st6" d="M201.3,197.6c0-2.3-1.9-4.2-4.2-4.2c-2.3,0-4.2,1.9-4.2,4.2s1.9,4.2,4.2,4.2
			C199.4,201.7,201.3,199.9,201.3,197.6z"/>
		<path class="st6" d="M201.3,182.8c0-2.3-1.9-4.2-4.2-4.2c-2.3,0-4.2,1.9-4.2,4.2c0,2.3,1.9,4.2,4.2,4.2
			C199.4,187,201.3,185.1,201.3,182.8z"/>
		<path class="st6" d="M201.3,168.1c0-2.3-1.9-4.2-4.2-4.2c-2.3,0-4.2,1.9-4.2,4.2c0,2.3,1.9,4.2,4.2,4.2
			C199.4,172.2,201.3,170.4,201.3,168.1z"/>
		<path class="st6" d="M201.3,227.1c0-2.3-1.9-4.2-4.2-4.2c-2.3,0-4.2,1.9-4.2,4.2c0,2.3,1.9,4.2,4.2,4.2
			C199.4,231.2,201.3,229.4,201.3,227.1z"/>
		<path class="st6" d="M179.2,173.8c-1.6-1.6-4.3-1.6-5.9,0c-1.6,1.6-1.6,4.3,0,5.9c1.6,1.6,4.3,1.6,5.9,0
			C180.8,178,180.8,175.4,179.2,173.8z"/>
		<path class="st6" d="M220.9,215.5c-1.6-1.6-4.3-1.6-5.9,0c-1.6,1.6-1.6,4.3,0,5.9c1.6,1.6,4.3,1.6,5.9,0
			C222.5,219.8,222.5,217.1,220.9,215.5z"/>
		<path class="st6" d="M167.6,193.4c-2.3,0-4.2,1.9-4.2,4.2s1.9,4.2,4.2,4.2s4.2-1.9,4.2-4.2S169.9,193.4,167.6,193.4z"/>
		<path class="st6" d="M226.6,193.4c-2.3,0-4.2,1.9-4.2,4.2s1.9,4.2,4.2,4.2c2.3,0,4.2-1.9,4.2-4.2S228.9,193.4,226.6,193.4z"/>
		<path class="st6" d="M173.3,215.5c-1.6,1.6-1.6,4.3,0,5.9c1.6,1.6,4.3,1.6,5.9,0c1.6-1.6,1.6-4.3,0-5.9
			C177.6,213.9,174.9,213.9,173.3,215.5z"/>
		<path class="st6" d="M215,173.8c-1.6,1.6-1.6,4.3,0,5.9c1.6,1.6,4.3,1.6,5.9,0c1.6-1.6,1.6-4.3,0-5.9
			C219.3,172.1,216.6,172.1,215,173.8z"/>
		<path class="st6" d="M201.3,212.3c0-2.3-1.9-4.2-4.2-4.2c-2.3,0-4.2,1.9-4.2,4.2c0,2.3,1.9,4.2,4.2,4.2
			C199.4,216.5,201.3,214.6,201.3,212.3z"/>
		<circle class="st6" cx="186.7" cy="187.1" r="4.2"/>
		<path class="st6" d="M210.5,205.1c-1.6-1.6-4.3-1.6-5.9,0c-1.6,1.6-1.6,4.3,0,5.9c1.6,1.6,4.3,1.6,5.9,0
			C212.1,209.3,212.1,206.7,210.5,205.1z"/>
		<path class="st6" d="M182.4,193.4c-2.3,0-4.2,1.9-4.2,4.2s1.9,4.2,4.2,4.2c2.3,0,4.2-1.9,4.2-4.2S184.7,193.4,182.4,193.4z"/>
		<path class="st6" d="M211.9,193.4c-2.3,0-4.2,1.9-4.2,4.2s1.9,4.2,4.2,4.2c2.3,0,4.2-1.9,4.2-4.2S214.2,193.4,211.9,193.4z"/>
		<circle class="st6" cx="186.7" cy="208" r="4.2"/>
		<path class="st6" d="M204.6,184.2c-1.6,1.6-1.6,4.3,0,5.9c1.6,1.6,4.3,1.6,5.9,0c1.6-1.6,1.6-4.3,0-5.9
			C208.9,182.6,206.2,182.6,204.6,184.2z"/>
	</g>
</g>
</svg>
