<?xml version="1.0" encoding="utf-8"?>
<!-- Generator: Adobe Illustrator 22.0.1, SVG Export Plug-In . SVG Version: 6.00 Build 0)  -->
<svg version="1.1" id="Layer_1" xmlns="http://www.w3.org/2000/svg" xmlns:xlink="http://www.w3.org/1999/xlink" x="0px" y="0px"
	 viewBox="0 0 394.6 394.6" style="enable-background:new 0 0 394.6 394.6;" xml:space="preserve">
<style type="text/css">
	.st0{fill:#FFCA00;}
	.st1{fill:#FDB813;}
	.st2{fill:#161D28;}
	.st3{fill:#263248;}
	.st4{fill:#1A2230;}
	.st5{fill:#FFFFFF;}
	.st6{fill:#CCDCFF;}
</style>
<g>
	<g>
		<path class="st0" d="M180.9,51.3v24.6c0,2.2,0.3,4.4,0.9,6.5l-14,5.1l-4.2,2.2v0l0,0l-35.6,95l18.7,7.2l17-38.3v13.1L162,298.2
			h31.1l12.4-77.8h0.4h0.2V26C192.2,26,180.9,37.3,180.9,51.3z"/>
		<path class="st1" d="M265.7,191.8l18.7-7.2l-35.6-95v0l-18.2-7.1c0.6-2.1,0.9-4.3,0.9-6.7V51.3c0-13.9-11.3-25.3-25.3-25.3
			c0,0,0,0,0,0v194.4h0.2h0.4l12.4,77.8h31.1l-1.5-131.4v-13.2L265.7,191.8z"/>
	</g>
	<path class="st2" d="M266.7,219.3c1.6,0.5,3.4-0.4,3.8-1.6c0,0,2.3-10.9,2.3-10.9c0.5,1.4,9.2,23.1,9.2,23.1v0v0l0,0l0,0
		c0.4,0.9,1.6,1.3,2.7,0.8c1.1-0.5,1.7-1.6,1.4-2.5l0,0l-6.8-18l0.2-0.1l8.1,19.5c0.4,0.9,1.6,1.3,2.7,0.8s1.7-1.6,1.4-2.5
		l-7.6-19.7l0.3-0.1l7,16.6l0,0l0,0c0.4,0.9,1.6,1.3,2.7,0.8c1.1-0.5,1.7-1.5,1.4-2.5c0,0,0,0,0,0l0,0l-6.4-16.9l0.3-0.1l5.2,12l0,0
		c0,0,0,0,0,0c0.4,0.9,1.4,1.3,2.4,0.9c1-0.4,1.5-1.4,1.1-2.3c0,0,0,0,0,0l0,0l-4.7-12.3l0,0c-0.5-1.5-2.5-6.5-2.9-7.4
		c-1.1-2.2-5.9-12.2-5.9-12.2l-0.2-0.4l-19.7,4.8l2.8,6.8l-2.8,19.7l0,0C264.3,217.1,265.1,218.8,266.7,219.3z"/>
	<path class="st2" d="M147.6,215.9L147.6,215.9l-2.8-19.7l2.8-6.8l-19.7-4.8l-0.2,0.4c0,0-4.8,9.9-5.8,12.2c-0.4,1-2.4,5.9-2.9,7.4
		l0,0l-4.7,12.3l0,0c0,0,0,0,0,0c-0.4,0.9,0.1,2,1.1,2.3c1,0.4,2,0,2.4-0.9c0,0,0,0,0,0l0,0l5.2-12l0.3,0.1l-6.4,16.9l0,0l0,0
		c-0.4,0.9,0.3,2,1.4,2.5c1.1,0.5,2.3,0.1,2.7-0.8l0,0l0,0l7-16.6l0.3,0.1l-7.6,19.7c-0.4,0.9,0.3,2,1.4,2.5s2.3,0.1,2.7-0.8
		l8.1-19.5l0.2,0.1l-6.8,18l0,0c-0.4,0.9,0.3,2,1.4,2.5c1.1,0.5,2.3,0.1,2.7-0.8l0,0l0,0v0v0c0,0,8.7-21.6,9.2-23.1
		c0,0,2.3,10.8,2.3,10.9c0.4,1.2,2.2,2.1,3.8,1.6C147.1,218.8,147.9,217.1,147.6,215.9z"/>
	<g>
		<path class="st3" d="M187.6,55.1v10.1c0,10.2,8.3,18.5,18.5,18.5V36.6C195.9,36.6,187.6,44.9,187.6,55.1z"/>
		<path class="st4" d="M206.2,36.6C206.2,36.6,206.2,36.6,206.2,36.6l0,47.2c0,0,0,0,0,0c10.2,0,18.5-8.3,18.5-18.5V55.1
			C224.7,44.9,216.4,36.6,206.2,36.6z"/>
	</g>
	<g>
		<path class="st5" d="M189.6,55.7v9c0,9.1,7.4,16.5,16.5,16.6V39.1C197,39.1,189.6,46.5,189.6,55.7z"/>
		<path class="st6" d="M206.2,39.1C206.2,39.1,206.2,39.1,206.2,39.1l0,42.1c0,0,0,0,0,0c9.1,0,16.6-7.4,16.6-16.6v-9
			C222.7,46.5,215.3,39.1,206.2,39.1z"/>
	</g>
	<path class="st2" d="M193.2,298.2H162v31.5l-11.2,11.2c-4.8,4.8-4.8,12.6,0,17.4l0.2,0.2c4.8,4.8,12.6,4.8,17.4,0l18.2-18.2
		c2-2,3.2-4.6,3.5-7.3l0,0L193.2,298.2z"/>
	<path class="st2" d="M261.5,340.8l-11.2-11.2v-31.5h-31.1L222,333l0,0c0.3,2.7,1.5,5.2,3.5,7.3l18.2,18.2c4.8,4.8,12.6,4.8,17.4,0
		l0.2-0.2C266.3,353.4,266.3,345.6,261.5,340.8z"/>
	<rect x="212.8" y="108.9" class="st5" width="21.8" height="3"/>
</g>
</svg>
