<?xml version="1.0" encoding="utf-8"?>
<!-- Generator: Adobe Illustrator 22.0.1, SVG Export Plug-In . SVG Version: 6.00 Build 0)  -->
<svg version="1.1" id="Layer_1" xmlns="http://www.w3.org/2000/svg" xmlns:xlink="http://www.w3.org/1999/xlink" x="0px" y="0px"
	 viewBox="0 0 394.6 394.6" style="enable-background:new 0 0 394.6 394.6;" xml:space="preserve">
<style type="text/css">
	.st0{fill:#8F5800;}
	.st1{fill:#303030;}
	.st2{fill:#2E2E2E;}
	.st3{fill:#B03800;}
	.st4{fill:#FF9D00;}
	.st5{fill:#8C8C8C;}
	.st6{fill:#BA7200;}
</style>
<g>
	<polygon class="st0" points="280.9,227 258.6,243.4 126.6,63.4 143.2,39.1 	"/>
	<polygon class="st0" points="120,227 142.4,243.4 274.3,63.4 257.7,39.1 	"/>
	<polygon class="st1" points="200.5,115.1 219.7,141.3 200.5,167.4 181.3,141.3 	"/>
	<rect x="282.2" y="272.1" class="st2" width="3.3" height="30.6"/>
	<rect x="115.5" y="272.1" class="st2" width="3.3" height="30.6"/>
	<rect x="105.7" y="226.4" class="st3" width="190.6" height="25.4"/>
	<polygon class="st4" points="143.2,272.1 115.5,272.1 115.5,48.9 143.2,39.1 	"/>
	<path class="st5" d="M112.7,125.2v33.2h33.2v-33.2H112.7z M140,152.5h-21.3v-21.3H140V152.5z"/>
	<path class="st5" d="M112.7,222.4v33.2h33.2v-33.2H112.7z M140,249.7h-21.3v-21.3H140V249.7z"/>
	<polygon class="st6" points="133.9,99 113.9,93.8 105.7,109.3 115.5,125.2 143.2,125.2 	"/>
	<polygon class="st4" points="257.7,272.1 285.5,272.1 285.5,48.9 257.7,39.1 	"/>
	<path class="st5" d="M255,125.2v33.2h33.2v-33.2H255z M261,131.2h21.3v21.3H261V131.2z"/>
	<path class="st5" d="M255,222.4v33.2h33.2v-33.2H255z M261,228.4h21.3v21.3H261V228.4z"/>
	<polygon class="st6" points="267,88.2 287.1,83 296.3,98.4 285.5,125.2 257.7,125.2 	"/>
	<rect x="145.9" y="134.3" class="st3" width="109" height="15.1"/>
	<rect x="186.4" y="132" class="st5" width="29.2" height="19.4"/>
	
		<rect x="211.7" y="313.9" transform="matrix(0.8984 -0.4391 0.4391 0.8984 -116.4554 144.422)" class="st4" width="84.5" height="20.1"/>
	<path class="st5" d="M252.4,309.8l11.6,24l24-11.6l-11.6-24L252.4,309.8z M258.8,312.1l15.4-7.4l7.4,15.4l-15.4,7.4L258.8,312.1z"
		/>
	
		<rect x="138" y="281.7" transform="matrix(0.4391 -0.8984 0.8984 0.4391 -207.9977 314.6935)" class="st4" width="20.1" height="84.5"/>
	<path class="st5" d="M125.6,298.3l-11.6,24l24,11.6l11.6-24L125.6,298.3z M135.8,327.4l-15.4-7.4l7.4-15.4l15.4,7.4L135.8,327.4z"
		/>
</g>
</svg>
