<?xml version="1.0" encoding="utf-8"?>
<!-- Generator: Adobe Illustrator 22.0.1, SVG Export Plug-In . SVG Version: 6.00 Build 0)  -->
<svg version="1.1" id="Layer_1" xmlns="http://www.w3.org/2000/svg" xmlns:xlink="http://www.w3.org/1999/xlink" x="0px" y="0px"
	 viewBox="0 0 394.6 394.6" style="enable-background:new 0 0 394.6 394.6;" xml:space="preserve">
<style type="text/css">
	.st0{fill:#9C9B9B;}
	.st1{fill:#D4D4D3;}
	.st2{fill:none;stroke:#BDBDBD;stroke-width:0.737;stroke-linecap:round;stroke-linejoin:round;stroke-miterlimit:10;}
	.st3{fill:#B4B4B3;}
	.st4{fill:#3C3C3B;}
	.st5{fill:#1C161B;}
	.st6{fill:#259CAA;}
	.st7{fill:#C6C6C5;}
	.st8{fill:#605F5F;}
</style>
<g>
	<g>
		<path class="st0" d="M35.3,301.7v6.4c0,4.1,3.2,7.3,7.2,7.3h313.7c4,0,7.2-3.3,7.2-7.3v-6.4H35.3z"/>
		<polygon class="st1" points="35.3,301.7 72.9,235.6 325.8,235.6 363.4,301.7 		"/>
		<polygon class="st2" points="340.3,278.5 320.3,243.3 78.5,243.3 58.4,278.5 		"/>
		<polygon class="st3" points="244.2,296.7 237.8,282.7 160.9,282.7 154.6,296.7 		"/>
		<path class="st0" d="M329.7,230.3c0,4.4-3.6,7.9-7.9,7.9H77c-4.4,0-7.9-3.6-7.9-7.9V93.8c0-4.4,3.6-7.9,7.9-7.9h244.8
			c4.4,0,7.9,3.6,7.9,7.9V230.3z"/>
		<path class="st4" d="M325.8,227.9c0,4.3-3.4,7.7-7.7,7.7H80.6c-4.3,0-7.7-3.5-7.7-7.7V96.2c0-4.3,3.5-7.7,7.7-7.7h237.5
			c4.3,0,7.7,3.5,7.7,7.7V227.9z"/>
		<rect x="83.3" y="98.9" class="st5" width="232.1" height="125.3"/>
		<rect x="87.4" y="101.6" class="st6" width="223.9" height="120"/>
		<path class="st7" d="M202.4,93.5c0,1.7-1.4,3.1-3.1,3.1c-1.7,0-3.1-1.4-3.1-3.1c0-1.7,1.4-3.1,3.1-3.1
			C201.1,90.5,202.4,91.8,202.4,93.5z"/>
		<g>
			<g>
				<path class="st8" d="M98.7,246.3c-5.5,0-8.3,0-13.8,0c0.4-0.7,0.6-1.1,1.1-1.9c5.5,0,8.2,0,13.7,0
					C99.3,245.2,99.1,245.5,98.7,246.3z"/>
				<path class="st8" d="M118.3,246.3c-5.5,0-8.3,0-13.8,0c0.4-0.7,0.5-1.1,0.9-1.9c5.5,0,8.2,0,13.7,0
					C118.7,245.2,118.6,245.5,118.3,246.3z"/>
				<path class="st8" d="M137.8,246.3c-5.5,0-8.3,0-13.8,0c0.3-0.7,0.4-1.1,0.7-1.9c5.5,0,8.2,0,13.7,0
					C138.2,245.2,138.1,245.5,137.8,246.3z"/>
				<path class="st8" d="M157.4,246.3c-5.5,0-8.3,0-13.8,0c0.2-0.7,0.3-1.1,0.5-1.9c5.5,0,8.2,0,13.7,0
					C157.6,245.2,157.5,245.5,157.4,246.3z"/>
				<path class="st8" d="M176.9,246.3c-5.5,0-8.3,0-13.8,0c0.1-0.7,0.2-1.1,0.3-1.9c5.5,0,8.2,0,13.7,0
					C177.1,245.2,177,245.5,176.9,246.3z"/>
				<path class="st8" d="M196.5,246.3c-5.5,0-8.3,0-13.8,0c0.1-0.7,0.1-1.1,0.2-1.9c5.5,0,8.2,0,13.7,0
					C196.5,245.2,196.5,245.5,196.5,246.3z"/>
				<path class="st8" d="M216.1,246.3c-5.5,0-8.3,0-13.8,0c0-0.7,0-1.1,0-1.9c5.5,0,8.2,0,13.7,0C216,245.2,216,245.5,216.1,246.3z"
					/>
				<path class="st8" d="M235.6,246.3c-5.5,0-8.3,0-13.8,0c-0.1-0.7-0.1-1.1-0.2-1.9c5.5,0,8.2,0,13.7,0
					C235.4,245.2,235.5,245.5,235.6,246.3z"/>
				<path class="st8" d="M255.2,246.3c-5.5,0-8.3,0-13.8,0c-0.2-0.7-0.2-1.1-0.4-1.9c5.5,0,8.2,0,13.7,0
					C254.9,245.2,255,245.5,255.2,246.3z"/>
				<path class="st8" d="M274.7,246.3c-5.5,0-8.3,0-13.8,0c-0.2-0.7-0.3-1.1-0.6-1.9c5.5,0,8.2,0,13.7,0
					C274.3,245.2,274.4,245.5,274.7,246.3z"/>
				<path class="st8" d="M294.3,246.3c-5.5,0-8.3,0-13.8,0c-0.3-0.7-0.5-1.1-0.7-1.9c5.5,0,8.2,0,13.7,0
					C293.8,245.2,293.9,245.5,294.3,246.3z"/>
				<path class="st8" d="M313.8,246.3c-5.5,0-8.3,0-13.8,0c-0.4-0.7-0.6-1.1-0.9-1.9c5.5,0,8.2,0,13.7,0
					C313.2,245.2,313.4,245.5,313.8,246.3z"/>
				<path class="st8" d="M95.7,252.4c-5.7,0-8.5,0-14.2,0c0.9-1.7,1.4-2.5,2.4-4.2c5.6,0,8.4,0,13.9,0
					C96.9,249.8,96.5,250.7,95.7,252.4z"/>
				<path class="st8" d="M115.8,252.4c-5.7,0-8.5,0-14.2,0c0.8-1.7,1.2-2.5,2-4.2c5.6,0,8.4,0,13.9,0
					C116.8,249.8,116.5,250.7,115.8,252.4z"/>
				<path class="st8" d="M136,252.4c-5.7,0-8.5,0-14.2,0c0.6-1.7,0.9-2.5,1.6-4.2c5.6,0,8.4,0,13.9,0
					C136.7,249.8,136.5,250.7,136,252.4z"/>
				<path class="st8" d="M156.1,252.4c-5.7,0-8.5,0-14.2,0c0.5-1.7,0.7-2.5,1.2-4.2c5.6,0,8.4,0,14,0
					C156.6,249.8,156.5,250.7,156.1,252.4z"/>
				<path class="st8" d="M176.3,252.4c-5.7,0-8.5,0-14.2,0c0.3-1.7,0.5-2.5,0.8-4.2c5.6,0,8.4,0,13.9,0
					C176.5,249.8,176.5,250.7,176.3,252.4z"/>
				<path class="st8" d="M196.4,252.4c-5.7,0-8.5,0-14.2,0c0.1-1.7,0.2-2.5,0.3-4.2c5.6,0,8.4,0,13.9,0
					C196.5,249.8,196.4,250.7,196.4,252.4z"/>
				<path class="st8" d="M216.6,252.4c-5.7,0-8.5,0-14.2,0c0-1.7,0-2.5-0.1-4.2c5.6,0,8.4,0,13.9,0
					C216.4,249.8,216.4,250.7,216.6,252.4z"/>
				<path class="st8" d="M236.7,252.4c-5.7,0-8.5,0-14.2,0c-0.2-1.7-0.3-2.5-0.5-4.2c5.6,0,8.4,0,13.9,0
					C236.3,249.8,236.4,250.7,236.7,252.4z"/>
				<path class="st8" d="M256.9,252.4c-5.7,0-8.5,0-14.2,0c-0.3-1.7-0.5-2.5-0.9-4.2c5.6,0,8.4,0,14,0
					C256.2,249.8,256.4,250.7,256.9,252.4z"/>
				<path class="st8" d="M277,252.4c-5.7,0-8.5,0-14.2,0c-0.5-1.7-0.8-2.5-1.3-4.2c5.6,0,8.4,0,13.9,0
					C276.1,249.8,276.4,250.7,277,252.4z"/>
				<path class="st8" d="M297.1,252.4c-5.7,0-8.5,0-14.2,0c-0.7-1.7-1-2.5-1.7-4.2c5.6,0,8.4,0,13.9,0
					C296,249.8,296.4,250.7,297.1,252.4z"/>
				<path class="st8" d="M317.3,252.4c-5.7,0-8.5,0-14.2,0c-0.8-1.7-1.3-2.5-2.1-4.2c5.6,0,8.4,0,13.9,0
					C315.9,249.8,316.3,250.7,317.3,252.4z"/>
				<path class="st8" d="M102.6,258.5c-9.8,0-14.8,0-24.6,0c1-1.7,1.4-2.5,2.4-4.2c9.7,0,14.5,0,24.1,0
					C103.7,256,103.4,256.8,102.6,258.5z"/>
				<path class="st8" d="M123.1,258.5c-5.9,0-8.8,0-14.7,0c0.7-1.7,1.1-2.5,1.8-4.2c5.7,0,8.6,0,14.4,0
					C124,256,123.7,256.8,123.1,258.5z"/>
				<path class="st8" d="M143.8,258.5c-5.9,0-8.8,0-14.7,0c0.6-1.7,0.8-2.5,1.4-4.2c5.7,0,8.6,0,14.4,0
					C144.5,256,144.3,256.8,143.8,258.5z"/>
				<path class="st8" d="M164.6,258.5c-5.9,0-8.8,0-14.7,0c0.4-1.7,0.6-2.5,1-4.2c5.8,0,8.6,0,14.4,0
					C165,256,164.8,256.8,164.6,258.5z"/>
				<path class="st8" d="M185.3,258.5c-5.9,0-8.8,0-14.7,0c0.2-1.7,0.3-2.5,0.6-4.2c5.7,0,8.6,0,14.4,0
					C185.5,256,185.4,256.8,185.3,258.5z"/>
				<path class="st8" d="M206,258.5c-5.9,0-8.8,0-14.7,0c0.1-1.7,0.1-2.5,0.2-4.2c5.8,0,8.6,0,14.4,0C206,256,206,256.8,206,258.5z"
					/>
				<path class="st8" d="M226.8,258.5c-5.9,0-8.8,0-14.7,0c-0.1-1.7-0.2-2.5-0.2-4.2c5.7,0,8.6,0,14.4,0
					C226.5,256,226.6,256.8,226.8,258.5z"/>
				<path class="st8" d="M247.5,258.5c-5.9,0-8.8,0-14.7,0c-0.3-1.7-0.4-2.5-0.7-4.2c5.7,0,8.6,0,14.4,0
					C247,256,247.1,256.8,247.5,258.5z"/>
				<path class="st8" d="M268.3,258.5c-5.9,0-8.8,0-14.7,0c-0.4-1.7-0.6-2.5-1.1-4.2c5.7,0,8.6,0,14.4,0
					C267.5,256,267.7,256.8,268.3,258.5z"/>
				<path class="st8" d="M289,258.5c-5.9,0-8.8,0-14.7,0c-0.6-1.7-0.9-2.5-1.5-4.2c5.7,0,8.6,0,14.4,0
					C288,256,288.3,256.8,289,258.5z"/>
				<path class="st8" d="M320.8,258.5c-10.3,0-15.5,0-25.9,0c-0.7-1.7-1.1-2.5-1.9-4.2c10.1,0,15.2,0,25.4,0
					C319.3,256,319.8,256.8,320.8,258.5z"/>
				<path class="st8" d="M89.6,264.6c-6,0-9,0-15.1,0c1-1.7,1.4-2.5,2.4-4.2c5.9,0,8.9,0,14.8,0C90.8,262.1,90.4,262.9,89.6,264.6z"
					/>
				<path class="st8" d="M110.9,264.6c-6,0-9,0-15.1,0c0.8-1.7,1.2-2.5,2-4.2c5.9,0,8.9,0,14.8,0
					C111.9,262.1,111.6,262.9,110.9,264.6z"/>
				<path class="st8" d="M132.2,264.6c-6,0-9,0-15.1,0c0.6-1.7,0.9-2.5,1.6-4.2c5.9,0,8.9,0,14.8,0
					C133,262.1,132.7,262.9,132.2,264.6z"/>
				<path class="st8" d="M153.6,264.6c-6,0-9,0-15.1,0c0.5-1.7,0.7-2.5,1.2-4.2c5.9,0,8.9,0,14.8,0
					C154.1,262.1,153.9,262.9,153.6,264.6z"/>
				<path class="st8" d="M174.9,264.6c-6,0-9,0-15.1,0c0.3-1.7,0.5-2.5,0.7-4.2c5.9,0,8.9,0,14.8,0
					C175.2,262.1,175.1,262.9,174.9,264.6z"/>
				<path class="st8" d="M196.2,264.6c-6,0-9,0-15.1,0c0.1-1.7,0.2-2.5,0.3-4.2c5.9,0,8.9,0,14.8,0
					C196.3,262.1,196.3,262.9,196.2,264.6z"/>
				<path class="st8" d="M217.6,264.6c-6,0-9,0-15.1,0c0-1.7,0-2.5-0.1-4.2c5.9,0,8.9,0,14.8,0C217.4,262.1,217.4,262.9,217.6,264.6
					z"/>
				<path class="st8" d="M238.9,264.6c-6,0-9,0-15.1,0c-0.2-1.7-0.3-2.5-0.5-4.2c5.9,0,8.9,0,14.8,0
					C238.5,262.1,238.6,262.9,238.9,264.6z"/>
				<path class="st8" d="M260.2,264.6c-6,0-9,0-15.1,0c-0.4-1.7-0.5-2.5-0.9-4.2c5.9,0,8.9,0,14.8,0
					C259.5,262.1,259.8,262.9,260.2,264.6z"/>
				<path class="st8" d="M281.6,264.6c-6,0-9,0-15.1,0c-0.5-1.7-0.8-2.5-1.3-4.2c5.9,0,8.9,0,14.8,0
					C280.6,262.1,280.9,262.9,281.6,264.6z"/>
				<path class="st8" d="M302.9,264.6c-6,0-9,0-15.1,0c-0.7-1.7-1-2.5-1.7-4.2c5.9,0,8.9,0,14.8,0
					C301.7,262.1,302.1,262.9,302.9,264.6z"/>
				<path class="st8" d="M324.2,264.6c-6,0-9,0-15.1,0c-0.8-1.7-1.3-2.5-2.1-4.2c5.9,0,8.9,0,14.8,0
					C322.8,262.1,323.3,262.9,324.2,264.6z"/>
				<path class="st8" d="M83.2,277.4c-6.4,0-9.6,0-16,0c0.9-1.7,1.4-2.5,2.4-4.2c6.3,0,9.4,0,15.7,0C84.4,274.9,84,275.7,83.2,277.4
					z"/>
				<path class="st8" d="M105.7,277.4c-6.4,0-9.6,0-15.9,0c0.8-1.7,1.2-2.5,2-4.2c6.3,0,9.4,0,15.7,0
					C106.7,274.9,106.4,275.7,105.7,277.4z"/>
				<path class="st8" d="M128.3,277.4c-6.4,0-9.6,0-16,0c0.6-1.7,0.9-2.5,1.6-4.2c6.3,0,9.4,0,15.7,0
					C129.1,274.9,128.8,275.7,128.3,277.4z"/>
				<path class="st8" d="M150.9,277.4c-6.4,0-9.6,0-16,0c0.5-1.7,0.7-2.5,1.2-4.2c6.3,0,9.4,0,15.7,0
					C151.4,274.9,151.2,275.7,150.9,277.4z"/>
				<path class="st8" d="M218.6,277.4c-20.4,0-40.8,0-61.1,0c0.3-1.7,0.5-2.5,0.8-4.2c20,0,40,0,60,0
					C218.4,274.9,218.5,275.7,218.6,277.4z"/>
				<path class="st8" d="M241.2,277.4c-6.4,0-9.6,0-16,0c-0.2-1.7-0.3-2.5-0.5-4.2c6.3,0,9.4,0,15.7,0
					C240.8,274.9,240.9,275.7,241.2,277.4z"/>
				<path class="st8" d="M263.8,277.4c-6.4,0-9.6,0-16,0c-0.3-1.7-0.5-2.5-0.9-4.2c6.3,0,9.4,0,15.7,0
					C263.1,274.9,263.3,275.7,263.8,277.4z"/>
				<path class="st8" d="M286.4,277.4c-6.4,0-9.6,0-16,0c-0.5-1.7-0.8-2.5-1.3-4.2c6.3,0,9.4,0,15.7,0
					C285.4,274.9,285.8,275.7,286.4,277.4z"/>
				<path class="st8" d="M309,277.4c-6.4,0-9.6,0-15.9,0c-0.7-1.7-1-2.5-1.7-4.2c6.3,0,9.4,0,15.7,0
					C307.8,274.9,308.2,275.7,309,277.4z"/>
				<path class="st8" d="M331.5,277.4c-6.4,0-9.6,0-15.9,0c-0.8-1.7-1.3-2.5-2.1-4.2c6.3,0,9.4,0,15.7,0
					C330.1,274.9,330.6,275.7,331.5,277.4z"/>
				<path class="st8" d="M97.1,270.7c-10.4,0-15.6,0-26,0c1-1.7,1.4-2.5,2.4-4.2c10.2,0,15.3,0,25.6,0
					C98.2,268.2,97.8,269,97.1,270.7z"/>
				<path class="st8" d="M118.7,270.7c-6.2,0-9.3,0-15.5,0c0.7-1.7,1.1-2.5,1.8-4.2c6.1,0,9.1,0,15.2,0
					C119.6,268.2,119.3,269,118.7,270.7z"/>
				<path class="st8" d="M140.7,270.7c-6.2,0-9.3,0-15.5,0c0.6-1.7,0.8-2.5,1.4-4.2c6.1,0,9.1,0,15.2,0
					C141.3,268.2,141.1,269,140.7,270.7z"/>
				<path class="st8" d="M162.6,270.7c-6.2,0-9.3,0-15.5,0c0.4-1.7,0.6-2.5,1-4.2c6.1,0,9.1,0,15.2,0
					C163,268.2,162.8,269,162.6,270.7z"/>
				<path class="st8" d="M184.5,270.7c-6.2,0-9.3,0-15.5,0c0.2-1.7,0.3-2.5,0.6-4.2c6.1,0,9.1,0,15.2,0
					C184.7,268.2,184.6,269,184.5,270.7z"/>
				<path class="st8" d="M206.4,270.7c-6.2,0-9.3,0-15.5,0c0.1-1.7,0.1-2.5,0.2-4.2c6.1,0,9.1,0,15.2,0
					C206.3,268.2,206.4,269,206.4,270.7z"/>
				<path class="st8" d="M228.4,270.7c-6.2,0-9.3,0-15.5,0c-0.1-1.7-0.1-2.5-0.2-4.2c6.1,0,9.1,0,15.2,0
					C228,268.2,228.1,269,228.4,270.7z"/>
				<path class="st8" d="M250.3,270.7c-6.2,0-9.3,0-15.5,0c-0.3-1.7-0.4-2.5-0.7-4.2c6.1,0,9.1,0,15.2,0
					C249.7,268.2,249.9,269,250.3,270.7z"/>
				<path class="st8" d="M272.2,270.7c-6.2,0-9.3,0-15.5,0c-0.4-1.7-0.6-2.5-1.1-4.2c6.1,0,9.1,0,15.2,0
					C271.4,268.2,271.7,269,272.2,270.7z"/>
				<path class="st8" d="M294.1,270.7c-6.2,0-9.3,0-15.5,0c-0.6-1.7-0.9-2.5-1.5-4.2c6.1,0,9.1,0,15.2,0
					C293.1,268.2,293.4,269,294.1,270.7z"/>
				<path class="st8" d="M327.7,270.7c-10.9,0-16.4,0-27.4,0c-0.8-1.7-1.1-2.5-1.9-4.2c10.7,0,16.1,0,26.9,0
					C326.3,268.2,326.8,269,327.7,270.7z"/>
			</g>
		</g>
	</g>
</g>
</svg>
