<?xml version="1.0" encoding="utf-8"?>
<!-- Generator: Adobe Illustrator 22.0.1, SVG Export Plug-In . SVG Version: 6.00 Build 0)  -->
<svg version="1.1" id="Layer_1" xmlns="http://www.w3.org/2000/svg" xmlns:xlink="http://www.w3.org/1999/xlink" x="0px" y="0px"
	 viewBox="0 0 394.6 394.6" style="enable-background:new 0 0 394.6 394.6;" xml:space="preserve">
<style type="text/css">
	.st0{fill:#8C8C8C;}
	.st1{fill:#D6D5DA;}
	.st2{fill:#919095;}
	.st3{fill:#3A66B8;}
	.st4{fill:#1B2B79;}
	.st5{fill:#B1B0B5;}
	.st6{fill:#CBCACF;}
	.st7{fill:#EDEDED;}
	.st8{fill:#434244;}
</style>
<g>
	<g>
		<path class="st0" d="M330.9,294H63.5c-5.2,0-9.3-4.2-9.3-9.3v-2h286.1v2C340.3,289.9,336.1,294,330.9,294z"/>
	</g>
	<g>
		<g>
			<g>
				<g>
					<path class="st1" d="M308.9,81.6H85.5c-4.2,0-7.6,3.4-7.6,7.6v136c0,4.2,3.4,7.6,7.6,7.6h223.4c4.2,0,7.6-3.4,7.6-7.6v-136
						C316.5,85,313.1,81.6,308.9,81.6z M312.4,219.8H82.1l230.3-96.5V219.8z"/>
				</g>
				<g>
					<path class="st2" d="M308.9,77.3H85.5c-6.5,0-11.9,5.3-11.9,11.9v136c0,6.5,5.3,11.9,11.9,11.9h223.4c6.5,0,11.9-5.3,11.9-11.9
						v-136C320.8,82.6,315.4,77.3,308.9,77.3z M316.5,225.2c0,4.2-3.4,7.6-7.6,7.6H85.5c-4.2,0-7.6-3.4-7.6-7.6v-136
						c0-4.2,3.4-7.6,7.6-7.6h223.4c4.2,0,7.6,3.4,7.6,7.6V225.2z"/>
				</g>
			</g>
			<g>
				<polygon class="st3" points="312.4,123.3 312.4,219.8 82.1,219.8 				"/>
			</g>
			<g>
				<polygon class="st4" points="312.4,88.4 312.4,123.3 82.1,219.8 82.1,88.4 				"/>
			</g>
		</g>
		<g>
			<g>
				<g>
					<path class="st5" d="M346.5,275.4L346.5,275.4c0.1,2.7-2,5.2-5,5.2H197.2H53c-3,0-5.1-2.6-5-5.2l0,0v9.8h0
						c0.1,2.6,2.1,4.9,5,4.9h144.2h144.2c2.9,0,4.9-2.3,5-4.9h0V275.4z"/>
				</g>
				<g>
					<path class="st6" d="M53,280.6h144.2h144.2c3,0,5.1-2.6,5-5.2c0-0.9-0.3-1.8-0.9-2.6l-21.5-30.9c-2.1-3-5.5-4.8-9.2-4.8H197.2
						H79.5c-3.7,0-7.1,1.8-9.2,4.8l-21.5,30.9c-0.6,0.8-0.9,1.7-0.9,2.6C47.8,278,49.9,280.6,53,280.6z"/>
				</g>
			</g>
			<g>
				<path class="st7" d="M311,257.1l-6-10.8c-1-1.7-2.8-2.8-4.8-2.8h-103h-103c-2,0-3.8,1.1-4.8,2.8l-6,10.8
					c-0.9,1.6,0.3,3.6,2.1,3.6h111.7h111.7C310.7,260.7,311.9,258.7,311,257.1z"/>
			</g>
			<g>
				<g>
					<path class="st5" d="M224.7,273.7l-1.7-7.9c-0.2-1.2-1.3-2-2.5-2h-23.4h-23.4c-1.2,0-2.2,0.8-2.5,2l-1.7,7.9
						c-0.3,1.3,0.7,2.6,2.1,2.6h25.4h25.4C224,276.3,225,275.1,224.7,273.7z"/>
				</g>
				<g>
					<path class="st8" d="M222.6,276.6h-50.8c-0.7,0-1.4-0.3-1.9-0.9c-0.5-0.6-0.6-1.3-0.5-2l1.7-7.9c0.3-1.3,1.4-2.2,2.7-2.2h46.8
						c1.3,0,2.5,0.9,2.7,2.2l1.7,7.9c0.1,0.7,0,1.4-0.5,2C224,276.3,223.4,276.6,222.6,276.6z M173.8,264c-1.1,0-2,0.8-2.2,1.8
						l-1.7,7.9c-0.1,0.6,0,1.1,0.4,1.6c0.4,0.4,0.9,0.7,1.5,0.7h50.8c0.6,0,1.1-0.3,1.5-0.7c0.4-0.4,0.5-1,0.4-1.6l-1.7-7.9
						c-0.2-1.1-1.2-1.8-2.2-1.8H173.8z"/>
				</g>
			</g>
		</g>
		<g>
			<polygon class="st4" points="312.4,88.4 312.4,123.3 82.1,219.8 82.1,88.4 			"/>
		</g>
	</g>
</g>
</svg>
